<svg version="1.2" xmlns="http://www.w3.org/2000/svg" viewBox="0 0 885 124" width="885" height="124"><defs><linearGradient id="P" gradientUnits="userSpaceOnUse"/><linearGradient id="g1" x1="441" y1="1.5" x2="438.1" y2="83.3" href="#P"><stop stop-color="#e56d86"/><stop offset="1" stop-color="#ad009f"/></linearGradient><linearGradient id="g2" x1="746.8" y1="12.8" x2="779" y2="30.6" href="#P"><stop offset="0" stop-color="#fd9400"/><stop offset="1"/></linearGradient><linearGradient id="g3" x1="769.3" y1="-0.5" x2="829" y2="19.8" href="#P"><stop stop-color="#e56d86"/><stop offset="1" stop-color="#ad009f"/></linearGradient><linearGradient id="g4" x1="768.5" y1="14.5" x2="783.9" y2="-20.3" href="#P"><stop stop-color="#e56d86"/><stop offset="1" stop-color="#ad009f"/></linearGradient></defs><style>.a{fill:url(#g1)}.b{mix-blend-mode:multiply;fill:#d45ba7}.c{opacity:.5;mix-blend-mode:multiply;fill:#d45ba7}.d{opacity:.5;mix-blend-mode:color-dodge;fill:url(#g2)}.e{opacity:.7;mix-blend-mode:multiply;fill:#9e2d7b}.f{fill:url(#g3)}.g{fill:url(#g4)}</style><path class="a" d="m855 123.3c0 0-222.9-0.5-440-1.3-32.6-0.1-65.1-0.2-96.7-0.4-167.7-0.7-309.8-1.6-309.8-2.7 0-2.2-5.9-51.5-7.5-65.1-0.3-2.1-0.4-3.4-0.4-3.4l115.7 2.6 35.6-7.8 111.5-9.2 7.7-0.7 89.4-7.4h21.8l30.7-6.1 22.7 2.6 65.3 4.4 23.2 1.1 94.4-2.9 59.5-2.5 65.2-2.7 10.8-16.5 95-5.2z"/><path class="b" d="m855 123.3c0 0-222.9-0.5-440-1.3-22.5-0.1-45-0.2-67.1-0.3q-2.9 0-5.7 0-4.3 0-8.5 0-2.4 0-4.7 0-5.4-0.1-10.7-0.1c-167.7-0.7-309.8-1.6-309.8-2.7 0-2.2-5.9-51.5-7.5-65.1-0.3-2.1-0.4-3.4-0.4-3.4l116.2 5.6 35.1-10.8 111.5-9.2 7.7-0.7 91.4-3 21.9-3.7 29.2-4.5 22.8 0.9 64 6.4 26.4 1.8 91.8-6.2 61.7 1.6 69.4 1 0.6-3.7 28.6 3.7 22.1 1.2 15.1 0.5-11.8-4.2-2.6 2.5h-10l1-6.5-10.1-3.6-5.3-6.7-3 13.1 1.9-14.6-22.1-6 95-5.2z"/><path class="c" d="m266.6 44.8l33.8 3 54.8 16.5-7.3-16.5 38.3-7.3c0 0 32.4-11 34.5-11.4 2-0.5 188.3 26 188.3 26l6.4-3.6-43.8-12.8 114.2 22.8 9.1-6.4-40.2-8.2-2.7-6.4-20.1-3.6 45.6-1.9 206.4 32.9 0.9 53-743.3 2.7-133.7-11.5 15.7-56 58.6 3.6c0 0 53.9-0.9 59.4 0 5.4 0.9 50.2 7.3 50.2 7.3z"/><path class="d" d="m703.9 23.5l41.2-0.3 9.1-18.3-10.9 17.4z"/><path class="e" d="m849.2 4l-0.9 3.6-34.3 1.7-5 0.2-8.2-0.9-10 1.8-13.4 2.5-1.2 4.8 0.9-4.6-0.9-1.8 24.5-3.5z"/><path class="f" d="m809 9.5c0 0-7.3 0-8.2 0-0.9 0-4.5 1.8-4.5 1.8l-12.8 1.8-5 1.3-4.2 11.5 1.9-8.2 1.2-4.8 13.4-2.5 10-1.8z"/><path class="g" d="m754.1 5.3l21.8 5.9 16-2.1-15.7 0.4z"/></svg>