<svg version="1.2" xmlns="http://www.w3.org/2000/svg" viewBox="0 0 903 151" width="903" height="151"><defs><linearGradient id="P" gradientUnits="userSpaceOnUse"/><linearGradient id="g1" x1="456.4" y1="-21.7" x2="458.6" y2="142.9" href="#P"><stop stop-color="#ff7c7c"/><stop offset="1" stop-color="#b5b621"/></linearGradient><linearGradient id="g2" x1="642.9" y1="44.5" x2="601.7" y2="154.9" href="#P"><stop stop-color="#ac6171"/><stop offset="1" stop-color="#9b8199"/></linearGradient><linearGradient id="g3" x1="611.1" y1="21.3" x2="569.9" y2="131.7" href="#P"><stop stop-color="#ac6171"/><stop offset="1" stop-color="#9b8199"/></linearGradient><linearGradient id="g4" x1="620.7" y1="26.9" x2="579.5" y2="137.4" href="#P"><stop stop-color="#ac6171"/><stop offset="1" stop-color="#9b8199"/></linearGradient><linearGradient id="g5" x1="678.5" y1="78.7" x2="621" y2="232.9" href="#P"><stop stop-color="#ac6171"/><stop offset="1" stop-color="#9b8199"/></linearGradient><linearGradient id="g6" x1="599.1" y1="7.8" x2="547.6" y2="145.8" href="#P"><stop stop-color="#ac6171"/><stop offset="1" stop-color="#9b8199"/></linearGradient><linearGradient id="g7" x1="574" y1="2.6" x2="537.1" y2="101.6" href="#P"><stop stop-color="#ac6171"/><stop offset="1" stop-color="#9b8199"/></linearGradient><linearGradient id="g8" x1="577.6" y1="6.4" x2="541.8" y2="102.4" href="#P"><stop stop-color="#ac6171"/><stop offset="1" stop-color="#9b8199"/></linearGradient><linearGradient id="g9" x1="280.1" y1="64.9" x2="283.2" y2="70.4" href="#P"><stop stop-color="#d5bf20"/><stop offset="1" stop-color="#aab23d"/></linearGradient><linearGradient id="g10" x1="281.9" y1="64.3" x2="282.6" y2="65.5" href="#P"><stop stop-color="#d5bf20"/><stop offset="1" stop-color="#aab23d"/></linearGradient><linearGradient id="g11" x1="284.4" y1="63" x2="286.4" y2="66.5" href="#P"><stop stop-color="#d5bf20"/><stop offset="1" stop-color="#aab23d"/></linearGradient><linearGradient id="g12" x1="282.8" y1="63.6" x2="283" y2="64" href="#P"><stop stop-color="#d5bf20"/><stop offset="1" stop-color="#aab23d"/></linearGradient><linearGradient id="g13" x1="297.4" y1="66.8" x2="304.8" y2="79.8" href="#P"><stop stop-color="#d5bf20"/><stop offset="1" stop-color="#aab23d"/></linearGradient><linearGradient id="g14" x1="280.1" y1="64.9" x2="283.2" y2="70.4" href="#P"><stop stop-color="#00a999"/><stop offset="1" stop-color="#00698d"/></linearGradient><linearGradient id="g15" x1="281.9" y1="64.3" x2="282.6" y2="65.5" href="#P"><stop stop-color="#00a999"/><stop offset="1" stop-color="#00698d"/></linearGradient><linearGradient id="g16" x1="284.4" y1="63" x2="286.4" y2="66.5" href="#P"><stop stop-color="#00a999"/><stop offset="1" stop-color="#00698d"/></linearGradient><linearGradient id="g17" x1="282.8" y1="63.6" x2="283" y2="64" href="#P"><stop stop-color="#00a999"/><stop offset="1" stop-color="#00698d"/></linearGradient><linearGradient id="g18" x1="293.2" y1="61.5" x2="297.6" y2="69.4" href="#P"><stop stop-color="#00a999"/><stop offset="1" stop-color="#00698d"/></linearGradient><linearGradient id="g19" x1="304.8" y1="59.7" x2="308.4" y2="66.1" href="#P"><stop stop-color="#00a999"/><stop offset="1" stop-color="#00698d"/></linearGradient><linearGradient id="g20" x1="351" y1="49" x2="364.3" y2="143.8" href="#P"><stop stop-color="#d5bf20"/><stop offset="1" stop-color="#aab23d"/></linearGradient><linearGradient id="g21" x1="350.4" y1="52.8" x2="363.2" y2="144.5" href="#P"><stop stop-color="#00a999"/><stop offset="1" stop-color="#00698d"/></linearGradient><linearGradient id="g22" x1="242.8" y1="73.5" x2="244.4" y2="104" href="#P"><stop stop-color="#d5bf20"/><stop offset="1" stop-color="#aab23d"/></linearGradient><linearGradient id="g23" x1="567.4" y1="-5.2" x2="704.3" y2="273.4" href="#P"><stop stop-color="#00a999"/><stop offset="1" stop-color="#00698d"/></linearGradient><linearGradient id="g24" x1="541.7" y1="15.9" x2="672.7" y2="282.7" href="#P"><stop stop-color="#00a999"/><stop offset="1" stop-color="#00698d"/></linearGradient><linearGradient id="g25" x1="606.5" y1="-32.7" x2="747.6" y2="254.5" href="#P"><stop stop-color="#00a999"/><stop offset="1" stop-color="#00698d"/></linearGradient><linearGradient id="g26" x1="644.4" y1="-49.2" x2="782" y2="230.8" href="#P"><stop stop-color="#00a999"/><stop offset="1" stop-color="#00698d"/></linearGradient><linearGradient id="g27" x1="500.9" y1="31.5" x2="546.3" y2="105.4" href="#P"><stop stop-color="#ae455c"/><stop offset="1" stop-color="#9a6698"/></linearGradient><linearGradient id="g28" x1="480.7" y1="46.8" x2="500.9" y2="79.6" href="#P"><stop stop-color="#ae455c"/><stop offset="1" stop-color="#9a6698"/></linearGradient><linearGradient id="g29" x1="483.7" y1="37.1" x2="514" y2="86.4" href="#P"><stop stop-color="#ae455c"/><stop offset="1" stop-color="#9a6698"/></linearGradient><linearGradient id="g30" x1="592.1" y1="-32.8" x2="566" y2="296.6" href="#P"><stop offset="0" stop-color="#fd9400"/><stop offset="1"/></linearGradient></defs><style>.a{fill:url(#g1)}.b{opacity:.9;mix-blend-mode:multiply;fill:#bcb2d7}.c{fill:url(#g2)}.d{fill:url(#g3)}.e{fill:url(#g4)}.f{fill:url(#g5)}.g{fill:url(#g6)}.h{fill:url(#g7)}.i{fill:url(#g8)}.j{opacity:.3;mix-blend-mode:multiply;fill:#ad70a3}.k{fill:url(#g9)}.l{fill:url(#g10)}.m{fill:url(#g11)}.n{fill:url(#g12)}.o{fill:url(#g13)}.p{opacity:.1;mix-blend-mode:multiply;fill:url(#g14)}.q{opacity:.1;mix-blend-mode:multiply;fill:url(#g15)}.r{opacity:.1;mix-blend-mode:multiply;fill:url(#g16)}.s{opacity:.1;mix-blend-mode:multiply;fill:url(#g17)}.t{opacity:.1;mix-blend-mode:multiply;fill:url(#g18)}.u{opacity:.1;mix-blend-mode:multiply;fill:url(#g19)}.v{fill:url(#g20)}.w{opacity:.1;mix-blend-mode:multiply;fill:url(#g21)}.x{opacity:.5;mix-blend-mode:multiply;fill:#a25dab}.y{opacity:.5;mix-blend-mode:multiply;fill:#9883d7}.z{opacity:.2;mix-blend-mode:multiply;fill:#d45ba7}.A{fill:url(#g22)}.B{fill:url(#g23)}.C{fill:url(#g24)}.D{fill:url(#g25)}.E{fill:url(#g26)}.F{opacity:.9;mix-blend-mode:multiply;fill:#9883d7}.G{fill:url(#g27)}.H{opacity:.8;mix-blend-mode:multiply;fill:#db6ca5}.I{fill:url(#g28)}.J{fill:url(#g29)}.K{opacity:.5;mix-blend-mode:color-dodge;fill:url(#g30)}</style><path class="a" d="m859.7 3v89.1c0 30.9 0 57.9 0 57.9l-832.9 0.9v-147c0 0 8.3 0 23.2 0 4.6 0 9.7-0.3 15.4-0.1q0.8 0 1.7 0c2.3 0.6 4.8 0.2 7.3-0.3 3.9-0.8 8-1.9 12.3-0.3q0.8 0.2 1.5 0.6c7.7-2.1 16 2.6 24.8 0 8.9-2.5 18.3-1.3 28.2 0 9.9-0.1 20.3-0.1 31.1-0.1 21.6 0 44.9 0 69.5-0.1 10.3 0 20.7 4 31.4 0 10.6 1.9 21.4 1.5 32.4 0 10.9 0.1 22-0.9 33.3-0.1q16.8 0 33.9 0c10.7 0 21.5-1 32.3 0 10.8-1.1 21.7-4.9 32.5-0.1 5.2 2 10.4 0.7 15.5 0 5.2-3.5 10.3 2.6 15.5 0 5.1 6 10.3-2.4 15.4 1.5 5.1 0.2 10.3-0.2 15.4-1.5 10.2-1.3 20.4-1.7 30.5-0.1 10.1-0.8 20.2 0.4 30.1 0 5.5 2.6 10.8 0.5 16.2 0.7 5.4 0.2 10.7 0.2 16-0.7 10.6 0.5 21-3.4 31.3-0.1 10.3-2 20.3-0.2 30.2 0 4.9 2.6 9.8 3.3 14.6 1.9 4.9-1.2 9.6-2.4 14.3-1.9 11.5 0.7 22.7-2.1 33.3-0.1q0.8 0.1 1.5 0.1 0.8 0 1.5 0c1.8 0.1 3.6 0 5.4-0.1q1.9-0.1 3.8-0.2 1.6-0.1 3.2-0.2 0.2 0 0.4 0 0.7-0.1 1.4-0.1c4.6-0.3 9.2-0.3 13.6 0.5q7.3 0 14.3 0 7 0 13.5 0c10.5 0 20.2 2 29-0.1 8.8-1.2 16.7 1.9 23.7 0 6.9 0.6 12.8 1.2 17.6 0 4.8-2.8 8.6 2.2 11.1 0 2.5 1.9 3.8 0.3 3.8 0z"/><g style="opacity:.6"><path class="b" d="m568.3 25.5l3 1.1 0.4-1.1z"/><path class="c" d="m659 17.7v2h-8.7l-6.2-1 7.5-3h0.1z"/><path class="d" d="m615.9 23.7v1.9h-8.1l-5.7-0.9 6.5-2.7 0.4-0.2z"/><path class="e" d="m618.6 24.9l2.2 0.3h2.9v-0.7l-2.5-0.7z"/><path class="f" d="m727.2 24.8l-2-0.1-26.5-0.9-8-0.9-10.6-1.1-14.9-2.1 9.9-4 2.5-3.1 6.2-5.1 13.3 6.8 12.8 6.4 6.9 1.1 6.7 1z"/><path class="g" d="m607.8 30l-16.6-0.4h-7.8l-1.8-1.5-9.2-1.5 6.9-3 8.7-0.8 4 1.1 14.9 4.2z"/><path class="h" d="m569.1 28.1h-7.8l-2.3-0.4 4.6-2.6h1.9z"/><path class="i" d="m570.9 25.5h-2.1l-1-0.3 2-1.6h0.9l1.7 1.9z"/><path class="j" d="m607.8 30l-16.6-0.4h-7.3l3.9-6.5 4.2 0.8 14.9 4.2z"/><path class="j" d="m615.9 23.7v1.9h-7.8l0.5-3.6 0.4-0.2z"/><path class="j" d="m569.1 28.1h-5.5l0.8-3h1.1z"/><path class="j" d="m659 17.7v2h-7.3v-4z"/><path class="j" d="m725.2 24.7l-26.5-0.9-8-0.9-0.6-4-11.9-2.6 5.5-3.4v-5.1l13.4 6.5 13.1 6.3 6.6 1.2 5.7 1z"/></g><path class="k" d="m277.1 60.8l3.3 2.5-4.3-0.1-2.7-2.9z"/><path class="l" d="m280.4 63.3h0.8l0.4 0.9z"/><path class="m" d="m279.8 60.3l2.5 3h-1.1z"/><path class="n" d="m282.3 63.3h0.2v0.4z"/><path class="o" d="m297.1 63.7l-2.1-0.1h-1.6l-7.2-0.2-3.7-0.1-0.9-7.4 3.8 0.8 7.3 1.6 0.4 0.1 2.2 0.4z"/><path class="p" d="m277.1 60.8l3.3 2.5-4.3-0.1-2.7-2.9z"/><path class="q" d="m280.4 63.3h0.8l0.4 0.9z"/><path class="r" d="m279.8 60.3l2.5 3h-1.1z"/><path class="s" d="m282.3 63.3h0.2v0.4z"/><path class="t" d="m286.2 63.4l-3.7-0.1-0.9-7.4 3.8 0.8z"/><path class="u" d="m295 63.6h-1.6l-0.7-5.3-0.1-1.4 0.5 1.5z"/><path class="v" d="m397.4 98.9c0 3.6 53.4 1.8 54.5 10 1 8.2-189.5 11-185.5 2.7 4.1-8.2 25.2-4.5 25.2-10 0-5.5-275.7-5.5-275.7-5.5l13.8-35.2 1.9-5c0 0 284.3 6 417.4 11.2 40.2 1.6 66.6 3.1 67.3 4.4 3.1 5.4 65.6 5.4 65.6 8.2 0 2.6-70.5 1.9-78.8 1.8 13 0.2 181.4 5.6 179.4 8.2-2 2.8-285.1 5.5-285.1 9.2z"/><path class="w" d="m397.4 98.9c0 3.6 53.4 1.8 54.5 10 1 8.2-189.5 11-185.5 2.7 4.1-8.2 25.2-4.5 25.2-10 0-5.5-275.7-5.5-275.7-5.5l13.8-35.2c51.3 1.9 250.1 9.3 250.1 13.3 0 4.6-148.9 0.9-148 5.5 1 4.5 212.8 9.1 213.7 12.8 1 3.6 22.9 8.2 28.4 7.3 5.4-0.9 11.8-9.2 17.3-10.1 5.5-0.9 113.2 2.8 114.2 0 0.9-2.7-46.6-4.5-47.5-5.5-0.6-0.5 26-1.1 45.1-2.7q0 0 0 0c10.6-0.9 18.8-2 18.8-3.6 0-4.6-31.1-3.7-32-4.6-0.9-0.9 22.9 0 22.9-0.9 0-0.7-40.5-3.7-63.7-5.3 40.2 1.6 66.6 3.1 67.3 4.4 3.1 5.4 65.6 5.4 65.6 8.2 0 2.6-70.5 1.9-78.8 1.8 13 0.2 181.4 5.6 179.4 8.2-2 2.8-285.1 5.5-285.1 9.2z"/><path class="x" d="m649.8 42.9q0.1-0.1 0.1-0.2c0.2 0.8 0.1 0.8-0.1 0.2z"/><path class="y" d="m859.7 3c0 0.3-1.3 1.9-3.8 0-2.5 2.2-6.3-2.8-11.1 0-4.8 1.2-10.7 0.6-17.6 0-7 1.9-14.9-1.2-23.7 0-8.8 2.1-18.5 0.1-29 0.1q-6.5 0-13.5 0-7 0-14.3 0c-4.4-0.8-9-0.8-13.6-0.5q-0.7 0.2-1.4 0.1-0.2 0-0.4 0-1.6 0.1-3.2 0.2-1.9 0.1-3.8 0.2-2.7 0.2-5.4 0.1-0.7 0-1.5 0-0.7 0-1.5-0.1c-10.6-2-21.8 0.8-33.3 0.1-4.7-0.5-9.4 0.7-14.3 1.9-4.8 1.4-9.7 0.7-14.6-1.9-9.9-0.2-19.9-2-30.2 0-10.3-3.3-20.7 0.6-31.3 0.1-5.3 0.9-10.6 0.9-16 0.7-5.4-0.2-10.7 1.9-16.2-0.7-9.9 0.4-20-0.8-30.1 0-10.1-1.6-20.3-1.2-30.5 0.1-5.1 1.3-10.3 1.7-15.4 1.5-5.1-3.9-10.3 4.5-15.4-1.5-5.2 2.6-10.3-3.5-15.5 0-5.1 0.7-10.3 2-15.5 0-10.8-4.8-21.7-1-32.5 0.1-10.8-1-21.6 0-32.3 0q-17.1 0-33.9 0c-11.3-0.8-22.4 0.2-33.3 0.1-11 1.5-21.8 1.9-32.4 0-10.7 4-21.1 0-31.4 0-24.6 0.1-47.9 0.1-69.5 0.1-10.8 0-21.2 0-31.1 0.1-9.9-1.3-19.3-2.5-28.2 0-8.8 2.6-14.6-3.8-22.3-1.7-0.4-0.3-3.1 0.1-3.6 0l-15.5-1.9h-9.2l-35.6 4.7-17.3 0.5c0 0 6.5 0.8 17.3 2.1 19.6 2.4 44.3-6.1 79.5-1.8 8.8 1.1 99.1 1.8 101.3 1.8 1.5 0 5.3 0.3 10.5 0.7 9.6 0.2 11.9 1.2 19.2 1.7 7.2 0.8 5 3.1 22.6 1.9 7.6-3.2 14.9 0.9 21.1 1.6 6.2 0.2 11.3 1.8 14.3 0.5 1.8 0 5-0.2 9.3-0.4 17.1-1.1 23.6-2.6 85.7-0.5 53 1.8 41.6 2.2 48.4-5.5 4.4-4.9 143.1 3.9 145.2 3.7 6.2-1.9 57.1-4.2 64.8-3.5 6.8 0.7 14.2 1.4 22 2.1 7.7 0.7 7.6-5.8 15.9-5 8.4 3.2 16.9 0.4 25.4 2.5 8.5 2.9 55.5-1.3 63.9 3.4 8.5 5.1 16.8 3 24.8 2.5 8.1 5.1 58.1 8.2 65.4 8.9 29.2 3 12.7 5 17.3 5.5 13.9 1.7 5-4.7 19.2-6.1z"/><path class="z" d="m259.7 28.5l43.8 1.8c-18-0.6-33.1-1.1-43.8-1.8z"/><path class="z" d="m304.4 31.3l35.7 0.9c-12.7-0.3-24.7-0.6-35.7-0.9z"/><path class="A" d="m15 20.3c0 0 47.3 3.7 63 3.7 15.7 0 161.6 14.6 161.6 14.6 0 0-149-4.6-148-1.8 1.1 2.7 218.3 10.9 218.3 10.9 0 0 159.9 7.3 166.2 10.1 6.3 2.7-151.5 0-151.5 0l-324.3-16.5z"/><g style="opacity:.1;mix-blend-mode:multiply"><path class="B" d="m653.3 101.1c0 1.6-1.8 2.7-4.9 1.7-3.1 1.8-7.6 2.1-13 1.1-5.3-3.8-11.5 2.5-18.2 0.4-6.6 0-12.8-0.1-18.2-0.4-10.7-0.6-17.8-1.6-17.8-2.8 0-1.7 16.1-3.2 36-3.2 6.7 0 12.9-2.4 18.2 0.5 5.4-0.2 9.9 0.2 13 1.1 3.1-2.4 4.9 0.2 4.9 1.6z"/><path class="C" d="m637.8 100.7c0 1.5 28.4 3.1 23.7 4.6-4.7 3.3-69.8 7.8-77.8 3-8 3.9-17.3 0.6-27.2 0.6-29.8 0-53.9-2.1-53.9-4.8 0-2.6 24.1-4.7 53.9-4.7 9.9 0 19.2 3 27.2 0.6 8 1.4 14.7-1 19.3 1.7 4.7-3.1 34.8 1.1 34.8-1z"/><path class="D" d="m688.9 95.7c0 0.3-1.4 0.7-3.6 0.9-2.2 0.3-5.3 0.4-8.7 0.4-3.4-0.1-6.5-1-8.7-0.4-2.3-0.5-20.1-0.8-20.1 0.4 0-2.7 17.8-4.9 20.1-2.3 2.2-2.1 5.3-0.5 8.7-0.4 3.4 0 6.5 0.1 8.7 0.4 2.2 0.2 3.6 0.6 3.6 1z"/><path class="E" d="m744.6 91.6c11 0-12.9 2.8-16 1.3-3.2 2.4-7.5 1.5-12.3 0.6-4.8-1.8-11.2 2.2-15.5 1.7-15.5-1.8-23.7-4.9-23.7-2.7 0-1.7 23.8-2.5 27-2.3 3.1-2.2 7.4 0.8 12.2-0.6 4.8 0 9.1 2.7 12.3 0.6 3.1-1.4 16 3.7 16 1.4z"/></g><g style="opacity:.7"><path class="F" d="m537.7 71.1l-4.4-1.5-16.6 1.5 7.8 1.8 11.9 0.4z"/><path class="F" d="m506.4 63.1l3.5 2.9-9.7-1.2-2.9-0.9 6.4-2.1z"/><path class="G" d="m516.6 71.1l5.2-0.2 13.1-0.4-7.1-3.7-9.2 2.4z"/><path class="H" d="m521.8 70.9l13.1-0.4-7.1-3.7-5.4 3.3z"/><path class="I" d="m487.7 64.4l2.3-0.1 5.8-0.2-3.2-1.7-4.1 1.1z"/><path class="H" d="m490 64.3l5.8-0.2-3.2-1.7-2.3 1.5z"/><path class="J" d="m497.3 63.8l2.5-0.2 6.1-0.5-3.3-4.4-4.3 2.8z"/><path class="H" d="m499.8 63.6l6.1-0.5-3.3-4.4-2.5 3.9z"/><path class="F" d="m496.6 64.3l-1.9-0.6-7.1 0.6 3.3 0.8 5.3 0.9z"/></g><path class="K" d="m638.3 74.5l-31.6-1.2-6.4-3.7-36.5 1.9-10-1-26.1-8c14.8 3 32.2 6.7 32.2 6.7l40.7 0.3 4 1.8z"/></svg>