<svg version="1.2" xmlns="http://www.w3.org/2000/svg" viewBox="0 0 196 210" width="196" height="210"><defs><linearGradient id="P" gradientUnits="userSpaceOnUse"/><linearGradient id="g1" x1="343.8" y1="-97.2" x2="414.5" y2="44.7" href="#P"><stop stop-color="#905291"/><stop offset="1" stop-color="#b7617c"/></linearGradient><linearGradient id="g2" x1="57.6" y1="72.3" x2="62.8" y2="78.9" href="#P"><stop stop-color="#6ec9bb"/><stop offset="1" stop-color="#6cad8d"/></linearGradient><linearGradient id="g3" x1="57.6" y1="99.9" x2="61.4" y2="104.7" href="#P"><stop stop-color="#6ec9bb"/><stop offset="1" stop-color="#6cad8d"/></linearGradient><linearGradient id="g4" x1="61.2" y1="72.4" x2="70" y2="83.7" href="#P"><stop stop-color="#6ec9bb"/><stop offset="1" stop-color="#6cad8d"/></linearGradient><linearGradient id="g5" x1="70.5" y1="28.9" x2="89.3" y2="53" href="#P"><stop stop-color="#6ec9bb"/><stop offset="1" stop-color="#6cad8d"/></linearGradient><linearGradient id="g6" x1="99.1" y1="61.8" x2="135.3" y2="108.2" href="#P"><stop stop-color="#6ec9bb"/><stop offset="1" stop-color="#6cad8d"/></linearGradient><linearGradient id="g7" x1="80.2" y1="165.6" x2="97" y2="187.2" href="#P"><stop stop-color="#6ec9bb"/><stop offset="1" stop-color="#6cad8d"/></linearGradient><linearGradient id="g8" x1="18.8" y1="128.9" x2="3.6" y2="79" href="#P"><stop stop-color="#ffd558"/><stop offset="1" stop-color="#005100"/></linearGradient><linearGradient id="g9" x1="18.6" y1="76.9" x2="26.2" y2="72.7" href="#P"><stop stop-color="#6ec9bb"/><stop offset="1" stop-color="#6cad8d"/></linearGradient><linearGradient id="g10" x1="31.9" y1="66.7" x2="38.8" y2="63" href="#P"><stop stop-color="#6ec9bb"/><stop offset="1" stop-color="#6cad8d"/></linearGradient><linearGradient id="g11" x1="-4" y1="-12" x2="100.1" y2="91.6" href="#P"><stop stop-color="#ffd558"/><stop offset="1" stop-color="#005100"/></linearGradient><linearGradient id="g12" x1="37.5" y1="46.2" x2="63.8" y2="62.2" href="#P"><stop stop-color="#6ec9bb"/><stop offset="1" stop-color="#6cad8d"/></linearGradient><linearGradient id="g13" x1="33.5" y1="63.4" x2="40.7" y2="59.5" href="#P"><stop stop-color="#ffab57"/><stop offset="1" stop-color="#dfb066"/></linearGradient><linearGradient id="g14" x1="60.2" y1="62.9" x2="69.6" y2="68.7" href="#P"><stop stop-color="#6ec9bb"/><stop offset="1" stop-color="#6cad8d"/></linearGradient><linearGradient id="g15" x1="51.6" y1="95.9" x2="50.5" y2="38.2" href="#P"><stop offset="0" stop-color="#ffb238"/><stop offset="1"/></linearGradient><linearGradient id="g16" x1="32.9" y1="78.4" x2="38" y2="62.4" href="#P"><stop stop-color="#6ec9bb"/><stop offset="1" stop-color="#6cad8d"/></linearGradient><linearGradient id="g17" x1="55.2" y1="-9.6" x2="147.3" y2="131.3" href="#P"><stop stop-color="#ffd558"/><stop offset="1" stop-color="#005100"/></linearGradient><linearGradient id="g18" x1="53.6" y1="53.1" x2="60.6" y2="31.2" href="#P"><stop stop-color="#6ec9bb"/><stop offset="1" stop-color="#6cad8d"/></linearGradient><linearGradient id="g19" x1="20.2" y1="61.6" x2="23.1" y2="37.7" href="#P"><stop stop-color="#6ec9bb"/><stop offset="1" stop-color="#6cad8d"/></linearGradient><linearGradient id="g20" x1="26.6" y1="10.9" x2="102" y2="24.9" href="#P"><stop stop-color="#ffd558"/><stop offset="1" stop-color="#005100"/></linearGradient><linearGradient id="g21" x1="8.6" y1="10.9" x2="104.8" y2="20.6" href="#P"><stop stop-color="#ffd558"/><stop offset="1" stop-color="#005100"/></linearGradient><linearGradient id="g22" x1="29.3" y1="25" x2="35.8" y2="29" href="#P"><stop stop-color="#6ec9bb"/><stop offset="1" stop-color="#6cad8d"/></linearGradient><linearGradient id="g23" x1="-22.3" y1="43" x2="115" y2="15.3" href="#P"><stop offset="0" stop-color="#ffb238"/><stop offset="1"/></linearGradient><linearGradient id="g24" x1="53.7" y1="17.5" x2="58.4" y2="17.6" href="#P"><stop stop-color="#6ec9bb"/><stop offset="1" stop-color="#6cad8d"/></linearGradient><linearGradient id="g25" x1="57.7" y1="25.8" x2="60.6" y2="25.9" href="#P"><stop stop-color="#6ec9bb"/><stop offset="1" stop-color="#6cad8d"/></linearGradient><linearGradient id="g26" x1="43.9" y1="24.3" x2="59.4" y2="24.7" href="#P"><stop stop-color="#6ec9bb"/><stop offset="1" stop-color="#6cad8d"/></linearGradient><linearGradient id="g27" x1="47.2" y1="25.8" x2="54" y2="26" href="#P"><stop stop-color="#6ec9bb"/><stop offset="1" stop-color="#6cad8d"/></linearGradient><linearGradient id="g28" x1="28.5" y1="38.2" x2="42" y2="12.5" href="#P"><stop stop-color="#6ec9bb"/><stop offset="1" stop-color="#6cad8d"/></linearGradient><linearGradient id="g29" x1="5.2" y1="58.7" x2="109.1" y2="69.2" href="#P"><stop stop-color="#ffd558"/><stop offset="1" stop-color="#005100"/></linearGradient><linearGradient id="g30" x1="-18.3" y1="67.2" x2="123.6" y2="38.5" href="#P"><stop offset="0" stop-color="#ffb238"/><stop offset="1"/></linearGradient><linearGradient id="g31" x1="12.5" y1="71.4" x2="27.8" y2="91.1" href="#P"><stop stop-color="#6ec9bb"/><stop offset="1" stop-color="#6cad8d"/></linearGradient><linearGradient id="g32" x1="27.1" y1="51.5" x2="43.1" y2="71.9" href="#P"><stop stop-color="#6ec9bb"/><stop offset="1" stop-color="#6cad8d"/></linearGradient><linearGradient id="g33" x1="29.1" y1="53.6" x2="42.9" y2="71.3" href="#P"><stop stop-color="#6ec9bb"/><stop offset="1" stop-color="#6cad8d"/></linearGradient><linearGradient id="g34" x1="33.1" y1="97.3" x2="35.1" y2="96.2" href="#P"><stop stop-color="#6ec9bb"/><stop offset="1" stop-color="#6cad8d"/></linearGradient><linearGradient id="g35" x1="130.8" y1="6.3" x2="202.3" y2="150.1" href="#P"><stop stop-color="#905291"/><stop offset="1" stop-color="#b7617c"/></linearGradient><linearGradient id="g36" x1="59.5" y1="62.1" x2="73.3" y2="89.8" href="#P"><stop stop-color="#6ec9bb"/><stop offset="1" stop-color="#6cad8d"/></linearGradient><linearGradient id="g37" x1="58.3" y1="115.4" x2="62.5" y2="123.9" href="#P"><stop stop-color="#6ec9bb"/><stop offset="1" stop-color="#6cad8d"/></linearGradient><linearGradient id="g38" x1="87.6" y1="161.9" x2="92.6" y2="172.2" href="#P"><stop stop-color="#6ec9bb"/><stop offset="1" stop-color="#6cad8d"/></linearGradient><linearGradient id="g39" x1="93.2" y1="173.2" x2="95.8" y2="178.4" href="#P"><stop stop-color="#6ec9bb"/><stop offset="1" stop-color="#6cad8d"/></linearGradient><linearGradient id="g40" x1="107.8" y1="166.2" x2="122.9" y2="196.5" href="#P"><stop stop-color="#6ec9bb"/><stop offset="1" stop-color="#6cad8d"/></linearGradient><linearGradient id="g41" x1="13.9" y1="14.2" x2="107" y2="48" href="#P"><stop stop-color="#ffd558"/><stop offset="1" stop-color="#005100"/></linearGradient><linearGradient id="g42" x1="46" y1="80.4" x2="59.9" y2="72.8" href="#P"><stop stop-color="#db9e49"/><stop offset="1" stop-color="#b79953"/></linearGradient><linearGradient id="g43" x1="19" y1="50.5" x2="25.1" y2="54.2" href="#P"><stop stop-color="#6ec9bb"/><stop offset="1" stop-color="#6cad8d"/></linearGradient><linearGradient id="g44" x1="23.9" y1="37.8" x2="34.9" y2="44.5" href="#P"><stop stop-color="#6ec9bb"/><stop offset="1" stop-color="#6cad8d"/></linearGradient><linearGradient id="g45" x1="25.7" y1="18.1" x2="54.5" y2="35.7" href="#P"><stop stop-color="#6ec9bb"/><stop offset="1" stop-color="#6cad8d"/></linearGradient><linearGradient id="g46" x1="-22.6" y1="41.8" x2="114.8" y2="14.1" href="#P"><stop offset="0" stop-color="#ffb238"/><stop offset="1"/></linearGradient><linearGradient id="g47" x1="56.2" y1="32" x2="56.3" y2="32" href="#P"><stop stop-color="#6ec9bb"/><stop offset="1" stop-color="#6cad8d"/></linearGradient><linearGradient id="g48" x1="52.1" y1="-24.4" x2="177.4" y2="167.4" href="#P"><stop stop-color="#ffd558"/><stop offset="1" stop-color="#005100"/></linearGradient><linearGradient id="g49" x1="107.7" y1="46.2" x2="103.5" y2="42.4" href="#P"><stop stop-color="#6ec9bb"/><stop offset="1" stop-color="#6cad8d"/></linearGradient><linearGradient id="g50" x1="91.3" y1="48.3" x2="85.6" y2="43.2" href="#P"><stop stop-color="#6ec9bb"/><stop offset="1" stop-color="#6cad8d"/></linearGradient><linearGradient id="g51" x1="87.4" y1="62.3" x2="80.5" y2="56" href="#P"><stop stop-color="#6ec9bb"/><stop offset="1" stop-color="#6cad8d"/></linearGradient><linearGradient id="g52" x1="-14.7" y1="-14.6" x2="98.4" y2="98" href="#P"><stop stop-color="#ffd558"/><stop offset="1" stop-color="#005100"/></linearGradient><linearGradient id="g53" x1="31.5" y1="69.3" x2="45.8" y2="74.9" href="#P"><stop stop-color="#6ec9bb"/><stop offset="1" stop-color="#6cad8d"/></linearGradient><linearGradient id="g54" x1="13.8" y1="49.9" x2="35.6" y2="63.2" href="#P"><stop stop-color="#6ec9bb"/><stop offset="1" stop-color="#6cad8d"/></linearGradient><linearGradient id="g55" x1="-33" y1="-27.8" x2="115.2" y2="119.7" href="#P"><stop stop-color="#ffd558"/><stop offset="1" stop-color="#005100"/></linearGradient><linearGradient id="g56" x1="-10.2" y1="86.6" x2="115.1" y2="61.3" href="#P"><stop offset="0" stop-color="#ffb238"/><stop offset="1"/></linearGradient><linearGradient id="g57" x1="-30.2" y1="86.7" x2="167.5" y2="46.7" href="#P"><stop offset="0" stop-color="#ffb238"/><stop offset="1"/></linearGradient><linearGradient id="g58" x1="-2.1" y1="42.3" x2="34.4" y2="64.6" href="#P"><stop stop-color="#6ec9bb"/><stop offset="1" stop-color="#6cad8d"/></linearGradient><linearGradient id="g59" x1="21.3" y1="67.3" x2="37.6" y2="77.3" href="#P"><stop stop-color="#6ec9bb"/><stop offset="1" stop-color="#6cad8d"/></linearGradient><linearGradient id="g60" x1="62.3" y1="-1.2" x2="138" y2="114.6" href="#P"><stop stop-color="#ffd558"/><stop offset="1" stop-color="#005100"/></linearGradient><linearGradient id="g61" x1="112.7" y1="78.1" x2="105" y2="59.2" href="#P"><stop stop-color="#6ec9bb"/><stop offset="1" stop-color="#6cad8d"/></linearGradient><linearGradient id="g62" x1="76.9" y1="45.3" x2="65.2" y2="47.6" href="#P"><stop stop-color="#db9e49"/><stop offset="1" stop-color="#b79953"/></linearGradient><linearGradient id="g63" x1="67" y1="36.5" x2="82.1" y2="55.9" href="#P"><stop stop-color="#6ec9bb"/><stop offset="1" stop-color="#6cad8d"/></linearGradient><linearGradient id="g64" x1="40.5" y1="68.7" x2="122.4" y2="39.3" href="#P"><stop offset="0" stop-color="#ffb238"/><stop offset="1"/></linearGradient><linearGradient id="g65" x1="149.4" y1="91.7" x2="161.6" y2="171.6" href="#P"><stop offset="0" stop-color="#ffb238"/><stop offset="1"/></linearGradient><linearGradient id="g66" x1="121.3" y1="75.9" x2="117.9" y2="14.7" href="#P"><stop stop-color="#ffd558"/><stop offset="1" stop-color="#005100"/></linearGradient><linearGradient id="g67" x1="139.8" y1="14.3" x2="149.5" y2="11.7" href="#P"><stop stop-color="#6ec9bb"/><stop offset="1" stop-color="#6cad8d"/></linearGradient><linearGradient id="g68" x1="155.5" y1="7.1" x2="164.6" y2="4.7" href="#P"><stop stop-color="#6ec9bb"/><stop offset="1" stop-color="#6cad8d"/></linearGradient><linearGradient id="g69" x1="134.1" y1="-95.7" x2="306.7" y2="122" href="#P"><stop stop-color="#ffd558"/><stop offset="1" stop-color="#005100"/></linearGradient><linearGradient id="g70" x1="167.3" y1="-12.8" x2="192.1" y2="12.2" href="#P"><stop stop-color="#6ec9bb"/><stop offset="1" stop-color="#6cad8d"/></linearGradient><linearGradient id="g71" x1="187.2" y1="11.7" x2="196.7" y2="21.3" href="#P"><stop stop-color="#6ec9bb"/><stop offset="1" stop-color="#6cad8d"/></linearGradient><linearGradient id="g72" x1="153.3" y1="20.5" x2="162.7" y2="5.1" href="#P"><stop stop-color="#6ec9bb"/><stop offset="1" stop-color="#6cad8d"/></linearGradient><linearGradient id="g73" x1="134.3" y1="-8.8" x2="234.9" y2="26.9" href="#P"><stop stop-color="#ffd558"/><stop offset="1" stop-color="#005100"/></linearGradient><linearGradient id="g74" x1="108.5" y1="-9.1" x2="252.8" y2="-3.2" href="#P"><stop offset="0" stop-color="#ffb238"/><stop offset="1"/></linearGradient><linearGradient id="g75" x1="140.9" y1="6.3" x2="152.3" y2="31.7" href="#P"><stop stop-color="#6ec9bb"/><stop offset="1" stop-color="#6cad8d"/></linearGradient><linearGradient id="g76" x1="160.1" y1="-12.6" x2="172.4" y2="14.8" href="#P"><stop stop-color="#6ec9bb"/><stop offset="1" stop-color="#6cad8d"/></linearGradient><linearGradient id="g77" x1="159.1" y1="-9.4" x2="170.1" y2="15.1" href="#P"><stop stop-color="#6ec9bb"/><stop offset="1" stop-color="#6cad8d"/></linearGradient><linearGradient id="g78" x1="299.5" y1="8.3" x2="279.5" y2="211" href="#P"><stop stop-color="#905291"/><stop offset="1" stop-color="#b7617c"/></linearGradient><linearGradient id="g79" x1="183.4" y1="19.9" x2="179.4" y2="60.7" href="#P"><stop stop-color="#6ec9bb"/><stop offset="1" stop-color="#6cad8d"/></linearGradient><linearGradient id="g80" x1="157.1" y1="78.8" x2="155.9" y2="90.8" href="#P"><stop stop-color="#6ec9bb"/><stop offset="1" stop-color="#6cad8d"/></linearGradient><linearGradient id="g81" x1="156.6" y1="148.2" x2="155.3" y2="161.4" href="#P"><stop stop-color="#6ec9bb"/><stop offset="1" stop-color="#6cad8d"/></linearGradient><linearGradient id="g82" x1="154.6" y1="164" x2="153.9" y2="170.2" href="#P"><stop stop-color="#6ec9bb"/><stop offset="1" stop-color="#6cad8d"/></linearGradient><linearGradient id="g83" x1="175.4" y1="165.9" x2="171.2" y2="208.2" href="#P"><stop stop-color="#6ec9bb"/><stop offset="1" stop-color="#6cad8d"/></linearGradient><linearGradient id="g84" x1="132.1" y1="140.4" x2="112.8" y2="-16.6" href="#P"><stop stop-color="#ffd558"/><stop offset="1" stop-color="#005100"/></linearGradient><linearGradient id="g85" x1="207" y1="31.9" x2="80.6" y2="-37.7" href="#P"><stop stop-color="#6ec9bb"/><stop offset="1" stop-color="#6cad8d"/></linearGradient><linearGradient id="g86" x1="171.4" y1="28.3" x2="148.4" y2="44.1" href="#P"><stop stop-color="#6ec9bb"/><stop offset="1" stop-color="#6cad8d"/></linearGradient><linearGradient id="g87" x1="164.7" y1="2.2" x2="139.9" y2="19.3" href="#P"><stop stop-color="#6ec9bb"/><stop offset="1" stop-color="#6cad8d"/></linearGradient><linearGradient id="g88" x1="163.9" y1="5.5" x2="141.7" y2="20.7" href="#P"><stop stop-color="#6ec9bb"/><stop offset="1" stop-color="#6cad8d"/></linearGradient><linearGradient id="g89" x1="151.3" y1="3" x2="166.9" y2="18.7" href="#P"><stop stop-color="#6ec9bb"/><stop offset="1" stop-color="#6cad8d"/></linearGradient><linearGradient id="g90" x1="97.4" y1="-116.5" x2="350.8" y2="203.1" href="#P"><stop stop-color="#ffd558"/><stop offset="1" stop-color="#005100"/></linearGradient><linearGradient id="g91" x1="111.4" y1="18.4" x2="241.9" y2="23.7" href="#P"><stop offset="0" stop-color="#ffb238"/><stop offset="1"/></linearGradient><linearGradient id="g92" x1="81.2" y1="13.3" x2="334.4" y2="23.6" href="#P"><stop offset="0" stop-color="#ffb238"/><stop offset="1"/></linearGradient><linearGradient id="g93" x1="131.4" y1="-29.6" x2="164.4" y2="3.6" href="#P"><stop stop-color="#6ec9bb"/><stop offset="1" stop-color="#6cad8d"/></linearGradient><linearGradient id="g94" x1="127.5" y1="136.6" x2="148" y2="259.1" href="#P"><stop stop-color="#ffd558"/><stop offset="1" stop-color="#005100"/></linearGradient><linearGradient id="g95" x1="113.3" y1="133.5" x2="135.5" y2="265.7" href="#P"><stop stop-color="#ffd558"/><stop offset="1" stop-color="#005100"/></linearGradient><linearGradient id="g96" x1="79.7" y1="185.1" x2="93.7" y2="194.2" href="#P"><stop stop-color="#6ec9bb"/><stop offset="1" stop-color="#6cad8d"/></linearGradient><linearGradient id="g97" x1="91" y1="184.8" x2="107.5" y2="195.6" href="#P"><stop stop-color="#6ec9bb"/><stop offset="1" stop-color="#6cad8d"/></linearGradient><linearGradient id="g98" x1="100" y1="182.4" x2="111.2" y2="189.8" href="#P"><stop stop-color="#6ec9bb"/><stop offset="1" stop-color="#6cad8d"/></linearGradient><linearGradient id="g99" x1="150.8" y1="150.9" x2="171.9" y2="258.1" href="#P"><stop stop-color="#ffd558"/><stop offset="1" stop-color="#005100"/></linearGradient><linearGradient id="g100" x1="143.1" y1="181.1" x2="166.2" y2="198.8" href="#P"><stop stop-color="#6ec9bb"/><stop offset="1" stop-color="#6cad8d"/></linearGradient><linearGradient id="g101" x1="132.1" y1="143.2" x2="148.7" y2="242.1" href="#P"><stop stop-color="#6ec9bb"/><stop offset="1" stop-color="#6cad8d"/></linearGradient></defs><style>.a{opacity:.7;mix-blend-mode:multiply;fill:#9883d7}.b{fill:url(#g1)}.c{fill:#ff7aa9}.d{opacity:.1;mix-blend-mode:multiply;fill:url(#g2)}.e{opacity:.1;mix-blend-mode:multiply;fill:url(#g3)}.f{opacity:.1;mix-blend-mode:multiply;fill:url(#g4)}.g{opacity:.4;mix-blend-mode:multiply;fill:url(#g5)}.h{opacity:.1;mix-blend-mode:multiply;fill:url(#g6)}.i{opacity:.1;mix-blend-mode:multiply;fill:url(#g7)}.j{fill:url(#g8)}.k{opacity:.6;mix-blend-mode:multiply;fill:url(#g9)}.l{opacity:.5;mix-blend-mode:multiply;fill:url(#g10)}.m{fill:url(#g11)}.n{opacity:.4;mix-blend-mode:multiply;fill:url(#g12)}.o{fill:url(#g13)}.p{opacity:.4;mix-blend-mode:multiply;fill:url(#g14)}.q{opacity:.5;mix-blend-mode:color-dodge;fill:url(#g15)}.r{opacity:.5;mix-blend-mode:multiply;fill:url(#g16)}.s{fill:url(#g17)}.t{opacity:.4;mix-blend-mode:multiply;fill:url(#g18)}.u{opacity:.6;mix-blend-mode:multiply;fill:url(#g19)}.v{fill:url(#g20)}.w{fill:url(#g21)}.x{opacity:.3;mix-blend-mode:multiply;fill:url(#g22)}.y{opacity:.5;mix-blend-mode:color-dodge;fill:url(#g23)}.z{opacity:.4;mix-blend-mode:multiply;fill:url(#g24)}.A{opacity:.4;mix-blend-mode:multiply;fill:url(#g25)}.B{opacity:.4;mix-blend-mode:multiply;fill:url(#g26)}.C{opacity:.4;mix-blend-mode:multiply;fill:url(#g27)}.D{opacity:.4;mix-blend-mode:multiply;fill:url(#g28)}.E{fill:url(#g29)}.F{opacity:.5;mix-blend-mode:color-dodge;fill:url(#g30)}.G{opacity:.3;mix-blend-mode:multiply;fill:url(#g31)}.H{opacity:.3;mix-blend-mode:multiply;fill:url(#g32)}.I{opacity:.3;mix-blend-mode:multiply;fill:url(#g33)}.J{opacity:.6;mix-blend-mode:multiply;fill:url(#g34)}.K{fill:url(#g35)}.L{opacity:.4;mix-blend-mode:multiply;fill:url(#g36)}.M{opacity:.1;mix-blend-mode:multiply;fill:url(#g37)}.N{opacity:.1;mix-blend-mode:multiply;fill:url(#g38)}.O{opacity:.1;mix-blend-mode:multiply;fill:url(#g39)}.P{opacity:.1;mix-blend-mode:multiply;fill:url(#g40)}.Q{fill:url(#g41)}.R{fill:url(#g42)}.S{opacity:.3;mix-blend-mode:multiply;fill:url(#g43)}.T{opacity:.3;mix-blend-mode:multiply;fill:url(#g44)}.U{opacity:.3;mix-blend-mode:multiply;fill:url(#g45)}.V{opacity:.5;mix-blend-mode:color-dodge;fill:url(#g46)}.W{opacity:.4;mix-blend-mode:multiply;fill:url(#g47)}.X{fill:url(#g48)}.Y{opacity:.4;mix-blend-mode:multiply;fill:url(#g49)}.Z{opacity:.4;mix-blend-mode:multiply;fill:url(#g50)}.a0{opacity:.5;mix-blend-mode:multiply;fill:url(#g51)}.a1{fill:url(#g52)}.a2{opacity:.4;mix-blend-mode:multiply;fill:url(#g53)}.a3{opacity:.5;mix-blend-mode:multiply;fill:url(#g54)}.a4{fill:url(#g55)}.a5{opacity:.5;mix-blend-mode:color-dodge;fill:url(#g56)}.a6{opacity:.5;mix-blend-mode:color-dodge;fill:url(#g57)}.a7{opacity:.4;mix-blend-mode:multiply;fill:url(#g58)}.a8{opacity:.4;mix-blend-mode:multiply;fill:url(#g59)}.a9{fill:url(#g60)}.aa{opacity:.5;mix-blend-mode:multiply;fill:url(#g61)}.ab{fill:url(#g62)}.ac{opacity:.3;mix-blend-mode:multiply;fill:url(#g63)}.ad{opacity:.5;mix-blend-mode:color-dodge;fill:url(#g64)}.ae{opacity:.5;mix-blend-mode:color-dodge;fill:url(#g65)}.af{fill:url(#g66)}.ag{opacity:.6;mix-blend-mode:multiply;fill:url(#g67)}.ah{opacity:.5;mix-blend-mode:multiply;fill:url(#g68)}.ai{fill:url(#g69)}.aj{opacity:.4;mix-blend-mode:multiply;fill:url(#g70)}.ak{opacity:.4;mix-blend-mode:multiply;fill:url(#g71)}.al{opacity:.5;mix-blend-mode:multiply;fill:url(#g72)}.am{fill:url(#g73)}.an{opacity:.5;mix-blend-mode:color-dodge;fill:url(#g74)}.ao{opacity:.3;mix-blend-mode:multiply;fill:url(#g75)}.ap{opacity:.3;mix-blend-mode:multiply;fill:url(#g76)}.aq{opacity:.3;mix-blend-mode:multiply;fill:url(#g77)}.ar{fill:url(#g78)}.as{opacity:.4;mix-blend-mode:multiply;fill:url(#g79)}.at{opacity:.1;mix-blend-mode:multiply;fill:url(#g80)}.au{opacity:.1;mix-blend-mode:multiply;fill:url(#g81)}.av{opacity:.1;mix-blend-mode:multiply;fill:url(#g82)}.aw{opacity:.1;mix-blend-mode:multiply;fill:url(#g83)}.ax{fill:url(#g84)}.ay{opacity:.3;mix-blend-mode:multiply;fill:url(#g85)}.az{opacity:.3;mix-blend-mode:multiply;fill:url(#g86)}.aA{opacity:.3;mix-blend-mode:multiply;fill:url(#g87)}.aB{opacity:.3;mix-blend-mode:multiply;fill:url(#g88)}.aC{opacity:.4;mix-blend-mode:multiply;fill:url(#g89)}.aD{fill:url(#g90)}.aE{opacity:.5;mix-blend-mode:color-dodge;fill:url(#g91)}.aF{opacity:.5;mix-blend-mode:color-dodge;fill:url(#g92)}.aG{opacity:.4;mix-blend-mode:multiply;fill:url(#g93)}.aH{fill:url(#g94)}.aI{fill:url(#g95)}.aJ{opacity:.4;mix-blend-mode:multiply;fill:url(#g96)}.aK{opacity:.4;mix-blend-mode:multiply;fill:url(#g97)}.aL{opacity:.4;mix-blend-mode:multiply;fill:url(#g98)}.aM{fill:url(#g99)}.aN{opacity:.4;mix-blend-mode:multiply;fill:url(#g100)}.aO{opacity:.4;mix-blend-mode:multiply;fill:url(#g101)}</style><path class="a" d="m26.1 200.9c0.9 0 45.7 0.9 45.7 0.9l5.4-0.9 64.3 0.7-11.3-3.4-50.2-1.8-25.6 1.8-3.7 1.8z"/><path class="b" d="m89.4 197.6l-8.2-1.4-1.3-0.2q0 0-0.2-0.6 0 0 0-0.1-0.1-0.1-0.1-0.2-0.1-0.3-0.2-0.7-0.1-0.1-0.1-0.3-0.1-0.2-0.2-0.5 0-0.1-0.1-0.2-0.1-0.3-0.2-0.7-0.1-0.2-0.2-0.4-0.4-1.2-0.9-2.6-0.3-1.1-0.8-2.2-0.2-0.6-0.4-1.3-0.7-2-1.5-4.3 0-0.3-0.1-0.5-0.3-0.8-0.6-1.8-0.1-0.2-0.2-0.5-0.1-0.4-0.2-0.7-0.1-0.4-0.3-0.9-0.2-0.7-0.5-1.5-0.1-0.4-0.2-0.8-0.2-0.4-0.3-0.8-0.2-0.6-0.4-1.2-0.1-0.2-0.1-0.4-0.1-0.4-0.3-0.8 0 0 0-0.1-0.1-0.3-0.2-0.7-0.3-0.9-0.6-1.9-0.2-0.6-0.4-1.3-0.4-1-0.7-2-0.2-0.7-0.4-1.3-0.2-0.7-0.4-1.4-0.2-0.6-0.4-1.1 0-0.2 0-0.3-0.1-0.3-0.2-0.7-0.6-1.7-1.1-3.5-0.2-0.7-0.4-1.3-1-3.4-1.9-6.7-0.5-1.8-1-3.6-0.2-0.7-0.4-1.4-0.3-1.2-0.6-2.4-0.2-0.6-0.3-1.3-0.5-1.8-1-3.6 0-0.4-0.1-0.7-0.1-0.4-0.2-0.7-0.3-1.1-0.5-2.2-0.1-0.3-0.2-0.7-0.1-0.4-0.2-0.7-0.4-1.8-0.7-3.5-0.1-0.4-0.2-0.7-0.6-3.1-1.2-6 0 0 0-0.1 0 0 0 0c-0.6-3.3-1.1-6.4-1.4-9.2q-0.1-0.8-0.1-1.7-0.2-1.4-0.2-2.7-0.1-1.7-0.2-3.5 0-1.4-0.1-2.8c-0.2-4.9-0.3-9.9-0.3-14.9q0-3.8 0-7.6 0-0.8 0-1.6 0-1.4 0-2.7 0-1.9 0-3.7 0-4 0.1-7.6c0.1-5.7 0.2-10.4 0.3-13.5 0.1-2.1 0.1-3.4 0.1-3.8q0-0.1 0-0.1l10.6 0.8c0 0-0.3 1.3-0.8 3.6-0.9 3.5-2.2 9.4-3.4 16.8q-0.6 4.1-1.2 8.8-0.2 1-0.3 2.1-0.1 0.7-0.2 1.4-0.4 4.2-0.8 8.8c-0.3 4.3-0.4 8.7-0.4 13.2q0 1 0 2.1 0 2 0.1 4.1 0 0.7 0.1 1.4c0.6 12.1 5.1 28.1 10.4 43.1 3.1 8.7 6.4 17 9.4 24.2 2.7 6.3 5.1 11.7 6.8 15.3 1.5 3.3 2.4 5.2 2.4 5.2z"/><path class="c" d="m81.2 196.2l-1.3-0.2q0 0-0.2-0.6 0 0 0-0.1-0.1-0.1-0.1-0.2-0.1-0.3-0.2-0.7-0.1-0.1-0.1-0.3-0.1-0.2-0.2-0.5 0-0.1-0.1-0.2-0.1-0.3-0.2-0.7-0.1-0.2-0.2-0.4-0.4-1.2-0.9-2.6-0.3-1.1-0.8-2.2-0.2-0.6-0.4-1.3-0.7-2-1.5-4.4 0-0.2-0.1-0.4-0.3-0.8-0.6-1.8-0.1-0.2-0.2-0.5-0.1-0.4-0.2-0.7-0.1-0.4-0.3-0.9-0.2-0.7-0.5-1.5-0.1-0.4-0.2-0.8-0.2-0.4-0.3-0.8-0.2-0.6-0.4-1.2-0.1-0.2-0.1-0.4-0.1-0.4-0.3-0.8 0 0 0-0.1-0.1-0.3-0.2-0.7-0.3-0.9-0.6-1.9-0.2-0.6-0.4-1.3-0.4-1-0.7-2-0.2-0.7-0.4-1.3-0.2-0.7-0.4-1.4-0.2-0.6-0.4-1.1 0-0.2 0-0.3-0.1-0.3-0.2-0.7-0.6-1.7-1.1-3.5-0.2-0.7-0.4-1.3-1-3.4-1.9-6.7-0.5-1.8-1-3.6-0.2-0.7-0.4-1.4-0.3-1.2-0.6-2.4-0.2-0.6-0.3-1.3-0.5-1.8-1-3.6 0-0.4-0.1-0.7-0.1-0.4-0.2-0.7-0.3-1.1-0.5-2.2-0.1-0.3-0.2-0.7-0.1-0.4-0.2-0.7-0.4-1.8-0.7-3.5-0.1-0.4-0.2-0.7-0.6-3.1-1.2-6c0.3 1 4.4 17.6 5 19.1 0.7 1.6 1.4 4.1 1.4 4.1h0.4l-0.7 0.4 1 4.1 0.2 0.9 2 6.5 1.3 3.6 0.5 1.6c0 0 1.9 7.2 4.2 15 1.3 4.3 2.8 8.7 4.1 12.2 1.2 3.2 2.4 5.7 3.3 6.5z"/><path class="d" d="m61.9 76.7q-0.2 1-0.3 2.1l-5.4-0.7q0-1.4 0-2.7z"/><path class="e" d="m60.2 104.3l-3.6 0.7q0-1.4-0.1-2.8h3.7q0 1 0 2.1z"/><path class="f" d="m61.4 80.2q-0.4 4.2-0.8 8.8l-4.4-1.7q0-3.8 0-7.6z"/><path class="g" d="m66.5 51.1c-0.9 3.5-2.2 9.4-3.4 16.8l-5.7-3.5c0.2-9.5-0.7-16.6-0.7-17.6 3.4 1.4 7.1 3.1 9.8 4.3z"/><path class="h" d="m70.8 152.9l-5.2-3-0.5-0.2q-0.5-1.8-1-3.6-0.2-0.7-0.4-1.4-0.3-1.2-0.6-2.4-0.2-0.6-0.3-1.3-0.5-1.8-1-3.6 0-0.4-0.1-0.7-0.1-0.4-0.2-0.7-0.3-1.1-0.5-2.2-0.1-0.3-0.2-0.7-0.1-0.4-0.2-0.7-0.4-1.8-0.7-3.5-0.1-0.4-0.2-0.7-0.6-3.1-1.2-6 0 0 0-0.1 0 0 0 0c-0.7-3.9-1.2-7.6-1.5-10.9l3.3-2.8q0 0.7 0.1 1.4c0.6 12.1 5.1 28.1 10.4 43.1z"/><path class="i" d="m87 192.4l-9.1-2.7h-0.2q-0.3-1.1-0.8-2.2-0.2-0.6-0.4-1.3-0.7-2-1.5-4.4 0-0.2-0.1-0.4-0.3-0.8-0.6-1.8-0.1-0.2-0.2-0.5-0.1-0.4-0.2-0.7-0.1-0.4-0.3-0.9h0.2l6.4-0.4c2.7 6.3 5.1 11.7 6.8 15.3z"/><path class="c" d="m57 82.6c0 0.9 0 18.1 0 18.1l0.3 13.1-0.2-0.9q-0.1-0.8-0.1-1.7-0.2-1.4-0.2-2.7-0.1-1.7-0.2-3.5 0-1.4-0.1-2.8c-0.2-4.9-0.3-9.9-0.3-14.9q0-3.8 0-7.6 0-0.8 0-1.6 0-1.4 0-2.7 0-1.9 0-3.7 0-4 0.1-7.6c0.1-5.7 0.2-10.4 0.3-13.5l0.8 0.4-0.1 8.7c0 0-0.3 22.1-0.3 22.9z"/><path class="j" d="m53.8 92.7l-0.1-0.3-4.4-8.7-1.8 0.3-3.6-5.8-0.6-1-0.7-1.1-1.2 12.9-0.6 5.8-2.7-2.7 2 4-0.3 4-0.1 0.7-0.4 4.8-0.1 0.4c0 0-4-4.3-7.4-9.2-1.1-1.6-1.9-3.8-2.5-6.1-1.2-4.9-1.5-10.1-1.5-10.1l7.4-2.6 1.1-0.4 7.2-10.5c0 0 1.8 1.3 3.8 3.1 2.2 2.1 4.7 5 5.4 7.7 1.4 5.2 1.1 14.8 1.1 14.8z"/><path class="k" d="m40.8 94.8l-2.7-2.7 2 4-0.3 4-4-2.9-1.3-3.8-5.2-2.7c-1.2-4.9-1.5-10.1-1.5-10.1l7.4-2.6c1.1 1.9 4 7 6.2 11z"/><path class="l" d="m53.8 92.7l-0.1-0.3-4.1-13.8-5.7-0.4-1.1-0.1 0.5-0.9 4-7c2.2 2.1 4.7 5 5.4 7.7 1.4 5.2 1.1 14.8 1.1 14.8z"/><path class="m" d="m75.7 95q0 0.2 0 0.2l-23.4-25-3.5 2.9-11.8 9.5-0.3 0.5-1.7-0.5-2.1-0.4c0 0 1.3-5 2.7-10.1 1.3-5 2.7-10.3 2.9-11.3 0.5-2 2.7 2.5 10.2 2q2.2-0.1 4.2-0.2 0.7 0 1.4-0.1c4.1-0.1 6.5-0.1 6.5-0.1q0 0 0 0 0 0 0.1 0.1c0.8 1.1 7.6 10 11.2 17.5q0.6 1.4 1.1 2.6c2.7 7.2 2.6 11.4 2.5 12.4z"/><path class="n" d="m52.3 70.2l8-6.5 9.5 13.5-6.5-1.6-5.2-4.9z"/><path class="o" d="m52.9 62.6l-9.2 1.3c0 0-4.5-2.2-4.9-2.2-0.5 0-3 11.7-3 11.7l-0.2-1.3c1.3-5 2.7-10.3 2.9-11.3 0.5-2 2.7 2.5 10.2 2q2.2-0.1 4.2-0.2z"/><path class="p" d="m75.7 95l-4.3-9-7.2-8.8 7.9 2.8q0.6 1.4 1.1 2.6c2.7 7.2 2.6 11.4 2.5 12.4z"/><path class="q" d="m53.3 71.3l10.7 10.2 0.6-2.9 0.5 4.7 4 4.5-0.9-4.7 2.1 5.6 5.3 6.6z"/><path class="r" d="m61 62.4l-0.1 0.1-11.3 8.6-6.8 0.7 6 1.3-11.8 9.5-0.2 0.4-0.1 0.1-2.9 2c0-0.1 0.5-1 1.2-2.5 2.6-5.4 8.7-18 8.7-18l10.6-2.1 6.5-0.1z"/><path class="s" d="m92.1 62.2l-0.5-0.3-16.4-12.2-2.3-1.7-2.7-2-1.5-1.1c0 0-1.3 0.2-4.5 0.8l-8.4 1.6c-3.2 0.6-5.8 3.6-7.7 7.2l-1.8-1.4-2.7-3.2 2.4 9.4q-0.7 2-1.2 3.8l-2-3.3 1.4 5.4c-0.8 3.3-1.2 5.7-1.2 5.7q0 0-0.1-0.1c-0.9-0.9-7.4-8-8.3-16.8q-0.1-0.9-0.2-1.9 0-0.9 0.1-1.8c0.2-6.5 2-11.1 5.6-13.5q1-0.6 2.1-1 1.5-0.5 3.4-0.7c3.5-0.3 7 1.3 9.7 3.2 2.8 1.9 4.8 4.1 5.4 4.7v0.1q0.2 0.2 0.2 0.2 0 0 0-0.1c0.3-0.4 3.2-4.5 6.5-8.3 3.6-4.3 7.9-8.3 10-7.1 0.8 0.5 1.8 1.7 2.9 3.4 4.3 6.8 9.9 20.8 10.3 22.8 0.4 2.6 1.5 8.2 1.5 8.2z"/><path class="t" d="m92.1 62.2l-0.5-0.3-6-11.7-9.9-7.5-0.5 7-2.3-1.7-0.6-6.2c0 0-1.1 2.1-2.1 4.2l-1.5-1.1c0 0-1.3 0.2-4.5 0.8l-3.3-2.5-0.2-0.1v-0.1l-6-4.5 0.6-0.2 12.1-3.4 12.9-3.7c4.3 6.8 9.9 20.8 10.3 22.8 0.4 2.6 1.5 8.2 1.5 8.2z"/><path class="u" d="m60.6 44c0 0-0.4 1-1 2.6l-3.8 0.7c-3.2 0.6-5.8 3.6-7.7 7.2l-1.8-1.4-2.7-3.3 2.4 9.5q-0.7 2-1.2 3.8l-2-3.3 1.4 5.4c-0.8 3.3-1.2 5.7-1.2 5.7q0 0-0.1-0.1l-2.1-9-0.7-11.8-5.5 4-2.4 1.7 2.3-5.4 5.6-13.4 0.7-1.7 1.4 0.6z"/><path class="v" d="m62.6 47.5l-0.6-0.5-20.5-16.8-8.5 6-1.2 0.9-3.9 2.7h-0.1l-3.2 2.3c0.1-0.1 1.7-3.5 3.8-7.4q0.5-1 1-1.9c1.9-3.5 3.8-7 5.1-8.4 1.8-2.1 6.7-4.7 10.4-6.4q0 0 0 0 0.5-0.2 0.9-0.4c2.1-0.8 3.6-1.3 4-1.1 1.1 0.4 9.7 11 11.2 20 0.7 3.5 1 6 1.3 7.7 0.3 2.6 0.3 3.3 0.3 3.3z"/><path class="w" d="m62.3 44.2q-0.2 1.3-0.3 2.5 0 0.1 0 0.3l-16.4-13.4-0.6-0.5-1.4-1.2-1.7-1.3-0.4-0.4-5.9 4.2-2.6 1.8c0.5-2.6 1.1-5.6 1.5-6.2 0.7-1.1 4.9-6.5 4.9-6.5l4.3-0.5-3.6-0.2 5.7-5.2c2.1-0.8 3.6-1.3 4-1.1 0.2 0.1 0.7 0.6 1.4 1.4 0.8 0.8 1.7 1.9 2.7 3.3 1 1.4 2 3.1 3 4.9q0.5 0.7 0.9 1.5c1.5 2.9 2.7 6 3.2 8.9 0.7 3.5 1 6 1.3 7.7z"/><path class="x" d="m33.2 30.7l-1.4 6.4-3.9 2.7c0.8-1.9 3.7-7.8 3.7-7.8z"/><path class="y" d="m28.4 34.7l-0.6 5.1-3.2 2.3c0.1-0.1 1.7-3.5 3.8-7.4z"/><path class="z" d="m51.2 17.9c0.8 0.8 1.7 1.9 2.7 3.3l-0.7 6.3-1.6-1.6z"/><path class="A" d="m57.8 27.6c-0.6 1.6-1.4 3.6-1.6 4.5 0.1-1.1 0.5-4 0.7-6q0.5 0.7 0.9 1.5z"/><path class="B" d="m44.8 24.4l-2.9 2.9v3.3l-0.4-0.4-5.9 4.2 3.8-6.9z"/><path class="C" d="m47.5 25.9l-2.2 3.2-0.3 4-1.4-1.2 0.6-3.4z"/><path class="D" d="m62 46.7q0 0.1 0 0.3l-16.4-13.4 1.4-2.9 6.2 0.2 1.8 2.7c-1.7-2.7-3.4-5.2-3.9-5.6-1.1-1.1-5.6-4.8-5.8-5l7 4.7 8.3 10.8-0.9 2.3q0 0-0.2-0.2z"/><path class="E" d="m38.1 74.5l-10.6-1.6v0.1l-5.1 5.5-6.6 7-10 12.5-4.1 5.1c0 0-0.4-1.7-0.7-4.2-0.5-3.3-0.8-7.9 0-11.3 1.3-6 7.2-18.4 9.6-20.2q0 0 0.1-0.1 0.3-0.2 1-0.5c2.3-0.9 7.2-2.2 11.2-3.1h0.1c3.1-0.7 5.7-1.3 5.9-1.3z"/><path class="F" d="m9.5 70.7l8.4-1.8-3.6 2.2-8.6 5.7-3.4 8.1 5.2-2.7-5.8 5.6-0.3 4.3 3.6-1.8-3.3 3.8-0.7 4.8c-0.5-3.3-0.8-7.9 0-11.3 1.3-6 7.2-18.4 9.6-20.2z"/><path class="G" d="m11.8 88.9l4-3.4-10 12.5-0.5-5.9 1.3 4 3.6-5.4-1.6-7.9z"/><path class="H" d="m20.3 67.3l2.1 11.2-6.6 7-1.3-11.9z"/><path class="I" d="m37.2 73.6l-9.7-0.7v0.1c0.1-1.4 0.3-2.5 0.3-2.7 0-0.5-3.2-5.7-3.2-5.7l4.3-2.2z"/><path class="J" d="m36.7 98.8l3 2-0.4 4.8z"/><path class="K" d="m124.5 197.6h-13.3c0 0-2.8-2.4-7-6.5-3.1-3.1-7.1-7.1-11.4-11.8q-0.7-0.8-1.4-1.5-0.5-0.7-1.1-1.3-1.5-1.7-2.9-3.4-2.5-2.9-4.9-6-1.3-1.6-2.6-3.3c-6.4-8.5-15.3-24.6-23.2-39.7q-1.3-2.6-2.6-5.2c-5.5-10.6-10.3-20.4-13-25.9q0-0.1 0-0.1c-1.5-3.1-2.3-4.9-2.3-4.9l4.8-10.8c0 0 2.1 6.3 5.8 16q1.5 3.9 3.3 8.5c2.2 5.4 4.8 11.3 7.7 17.5q1.1 2.5 2.3 5.1c6.1 12.7 13.4 26.2 21.5 37.7q1.5 2.2 3.2 4.2 2.2 2.9 4.6 5.5 1.9 2 3.7 3.8 1 1 2 1.9 0.8 0.8 1.6 1.5c4.8 4.4 9.6 8.2 13.7 11.1 6.7 4.9 11.5 7.6 11.5 7.6z"/><path class="c" d="m105.4 189.9l-1.2 1.2c-6.2-6.1-15.7-15.9-24.3-27.3-11.8-15.7-31.9-56.7-38.8-70.9l12.7 22.6 1.6 3.1c0 0 5.5 11.2 5.7 12.2 0.2 1.1 8.9 15.9 8.9 15.9l1.6-0.2-1.3 0.7c0 0 1.3 3.1 1.8 3.3 0.4 0.3 2.2 3.9 2.2 3.9l2.3 3.6h0.9l3.1 5.1c0 0 0.9 2.1 2.3 3.4 1.3 1.4 5.1 5.4 5.1 5.4l6.3 7.7 5.9 5.8 1.8 1.1z"/><path class="L" d="m52.7 101.7l-1.3-0.9-8.6-5.6-1.7-2.2q0-0.1 0-0.1c-1.5-3.1-2.3-4.9-2.3-4.9l4.8-10.8c0 0 2.1 6.3 5.8 16q0.4 1 0.8 2 1.2 3 2.5 6.5z"/><path class="M" d="m62.7 124.3l-6-0.2q-1.3-2.6-2.6-5.2l6.3 0.3q1.1 2.5 2.3 5.1z"/><path class="N" d="m92 171.7l-4.6 1.4q-2.5-2.9-4.9-6l4.9-0.9q2.2 2.9 4.6 5.5z"/><path class="O" d="m97.7 177.4l-6.3 0.4q-0.5-0.7-1.1-1.3l5.4-1q1 1 2 1.9z"/><path class="P" d="m124.5 197.6h-13.3c0 0-2.8-2.4-7-6.5-3.1-3.1-7.1-7.1-11.4-11.8l6.5-0.4c12.7 11.7 25.2 18.7 25.2 18.7z"/><path class="Q" d="m60.3 47.6c0 0 0 3-6.3-6.7-6.1-9.4-12.8 4.6-17.1 9.8q-0.2 0.2-0.4 0.4-0.3 0.4-0.6 0.7l-2.5-7 1.7 7.7q-1.1 0.8-2.5 1.6c-2.3 1.3-5 2.5-7.3 3.4v-3.4l-0.1 0.1-1.2 3.7c-1.7 0.6-3.1 1-3.7 1.2q-0.4 0.1-0.4 0.1c0.1-0.2 4.3-6.6 6.4-10 0.8-1.4 4.3-8.1 8.2-13.6 2.3-3.3 4.7-6.2 6.8-7.2q0.7-0.4 1.4-0.3c1.9 0.1 4.8 2.7 7.6 6h0.1q0.2 0.4 0.5 0.7c4.8 5.7 9.4 12.8 9.4 12.8z"/><path class="R" d="m48.5 103.5l-13.1-10-0.7-3 0.9 2.4 2.8-4.5-1.4 5.7z"/><path class="S" d="m25.2 54.2l-1.2 3.7c-1.7 0.6-3.1 1-3.7 1.2 0.6-0.6 3.2-3.1 4.9-4.9z"/><path class="T" d="m31.6 46.2c0 0 0.6 5 1 7.9-2.3 1.3-5 2.5-7.3 3.4v-3.3c0.9-1 1.6-1.7 1.6-1.7 0-0.2 4.7-6.3 4.7-6.3z"/><path class="U" d="m60.3 47.6c0 0 0 3-6.3-6.7-6.1-9.4-12.8 4.6-17.1 9.8l-4-7.7c0 0 5.2-7.8 6.8-8.7 1.3-0.8 8.9 0.2 11.2 0.5 4.8 5.7 9.4 12.8 9.4 12.8z"/><path class="V" d="m34.5 35.6l-2.2 5.9-5.4 9.2-7 8.5c0.1-0.2 4.3-6.6 6.4-10 0.8-1.4 4.3-8.1 8.2-13.6z"/><path class="W" d="m56.1 32.5q0-0.2 0.1-0.4c-0.1 0.3-0.1 0.5-0.1 0.4z"/><path class="X" d="m85.6 36.1l-3.7-4.1 2.4 4.3c0 0-0.5 0.3-1.3 0.6-2.5 1.2-7.8 3.5-8.8 3.7-1.2 0.3-12.9 3.3-12.9 3.3l-7.8-0.3c0 0 1.6-2.1 4-4.9 1.1-1.3 2.3-2.6 3.6-4q0 0 0 0c1.5-1.6 3-3.1 4.5-4.6 3.2-3 6.4-5.5 8.9-6.3 2.7-0.8 7.5 0.2 12.6 1.7h0.1l0.5 0.1q1 0.4 2 0.7c8 2.6 15.6 6.1 15.6 6.1z"/><path class="Y" d="m105.3 32.4l-15 2.8-2.5-3 3.2 1.8 8.7-3.2c0 0-4.8-2.2-10-4.5 8 2.6 15.6 6.1 15.6 6.1z"/><path class="Z" d="m87.7 25.7c-0.3-0.1-7.7-2.4-12-1.3-2.7 0.7-14.1 9.8-14.6 10.3l4.5-4.6c3.2-3 6.4-5.5 8.9-6.3 2.7-0.8 7.5 0.2 12.6 1.7h0.1z"/><path class="a0" d="m83 36.9c-2.5 1.2-7.8 3.5-8.8 3.7-1.2 0.3-12.9 3.3-12.9 3.3l-7.8-0.3c0 0 1.6-2.1 4-4.9l2.5-0.4 11.1-8.8 6.7 9.1 2.1-1.7-5.5-8.6z"/><path class="a1" d="m49.7 104.4l-1.2-0.9-13.1-10-0.7-3-0.7-3.1-1.8-7.4-0.3-1 0.4-0.2 10.3-6.4 1.7-1.1 0.3 2.2 1.9 12.8 0.6 3.5z"/><path class="a2" d="m41.4 88.8l6 2.4 2.2 12.8-5.6-7z"/><path class="a3" d="m47.1 89.8l-6.8-2.2-2-4.7-4.3 4.5-1.8-7.4 0.1-1.2 10.3-6.4 1.4-0.3 0.6 1.4 1.9 12.8z"/><path class="a4" d="m38.1 72.9l-0.4 0.8-9.7 20.7-0.5 1-2.9-3.3 2.5 4.5-3.2 13.2q0 0-0.2-0.3 0 0 0 0c-1.2-1.9-6.6-10.9-7.4-20.1-0.2-2 0-4 0.4-5.8q0-0.1 0-0.2c1.7-7.8 7.2-14.1 7.2-14.1l9.8 2.5z"/><path class="a5" d="m23 83.7l-6.7 2.8q0.1-1.6 0.4-3.2l6.3-2.3z"/><path class="a6" d="m23.7 109.5c-1.2-2-6.6-11-7.4-20.1q0-0.2 0-0.3l6.7-4.3v2.3l-5.6 4.7 1.4 5.9 2.9-2.3c-0.1 0.2-2 3.9-2 4.8 0 0.8 3.7 8.7 4 9.3z"/><path class="a7" d="m37.2 73.6l-4.3 8.3-1.6 4.1-4.2-4.5 3.8 5.6-2.9 7.3-4.1-6.6 1.2-5.4 1.3-2.3c0 0-1.1 0-1.8 0-0.5 0-5.8 2.5-7.9 3.5q0-0.1 0-0.2c1.7-7.8 7.2-14.1 7.2-14.1l9.8 2.5z"/><path class="a8" d="m23 91.4l-0.6 4.3 1.5 14.1 3.2-13.5z"/><path class="a9" d="m80.6 71.5c-0.4 2.7-2.3 5.5-3.9 7.5-1.2 1.4-2.2 2.3-2.2 2.3l-2.5-5.6-6.3-13.8-2.8-5.2-1.6-3-1.6-3-1.9-3.5-2.8-1.2-4.7-1.9-4.2-1.7 14-3c0.1 0.1 2.6 1.9 5.7 4.2 3.9 2.8 8.7 6.4 10.8 8.2q0.6 0.6 0.9 0.9 0 0.1 0.1 0.1c1.8 2.5 3.7 14 3 18.7z"/><path class="aa" d="m77.5 55.6l-8.1-5.8 3 3.5 7 8.4 0.8 7.2-4.5-4.6 4.2 6.9-1.3 3-3.2-3.2 2.3 4.4-1 3.6c1.6-2 3.5-4.8 3.9-7.5 0.7-4.7-1.2-16.2-3-18.7z"/><path class="ab" d="m65.8 43.6l10.8 8.2c-2.1-1.8-6.9-5.4-10.8-8.2z"/><path class="ac" d="m71.3 54.8l-5.6 7.1-2.8-5.2-2.5-2.1 0.9-0.9 3.3-3.5 2.7-2.8z"/><path class="ad" d="m68.8 66.4l-3.1-4.5 6.3 13.8 2.6-3.6-2.8 1.9-1.9-5.5 4.3-4.4z"/><path class="ae" d="m113 190c-0.2 1.4-0.3 2.2-0.3 2.2-0.5 0-15.5-13.2-15.5-13.2l-9-10.8c0 0-7.2-10.6-10.5-15.2-3.4-4.6-15-27.4-15-27.4l-9.2-21.5-0.8-2.4c2.2 5.4 4.8 11.3 7.7 17.5q1.1 2.5 2.3 5.1c6.1 12.7 13.4 26.2 21.5 37.7q1.5 2.2 3.2 4.2 2.2 2.9 4.6 5.5 1.9 2 3.7 3.8 1 1 2 1.9 0.8 0.8 1.6 1.5c4.8 4.4 9.6 8.2 13.7 11.1z"/><path class="af" d="m173.8 45.3l-0.1-0.4-2.6-11.8-1.8-0.3-2.5-8.1-0.4-1.4-0.5-1.6-3.8 14.9-1.7 6.7-2.1-4.1 1.2 5.5-1.2 4.6-0.2 0.9-1.4 5.5-0.1 0.4c0 0-3.2-6.4-5.5-13.4-0.8-2.3-1.2-5.2-1.3-8.1-0.3-6.3 0.5-12.6 0.5-12.6l7.9-0.5 1.2-0.1 9.2-10.1c0 0 1.5 2.1 3.1 5 1.8 3.3 3.8 7.5 3.9 11 0.4 6.6-1.8 18-1.8 18z"/><path class="ag" d="m160.4 43.3l-2.1-4.1 1.2 5.5-1.2 4.6-3.3-4.7-0.6-5-4.6-5c-0.3-6.3 0.5-12.6 0.5-12.6l7.9-0.5c0.8 2.6 2.6 9.6 3.9 15.1z"/><path class="ah" d="m173.8 45.3l-0.1-0.4-1.3-17.9-5.6-2.3-1-0.5 0.6-0.9 5.3-7c1.8 3.3 3.8 7.5 3.9 11 0.4 6.6-1.8 18-1.8 18z"/><path class="ai" d="m195.1 55.4q-0.1 0.3-0.1 0.3l-18.3-37.7-4 2.2-13.7 7.4-0.3 0.4-1.7-1.1-1.9-1.2c0 0 2.3-5.4 4.7-11.1 2.3-5.5 4.7-11.3 5.2-12.4 0.8-2.3 2.1 3.8 9.6 5.8q2.3 0.6 4.2 1.2 0.8 0.2 1.5 0.4c4.1 1.2 6.5 2 6.5 2q0 0 0 0 0 0 0.1 0.1c0.6 1.6 5.5 14.6 7.6 24.7q0.4 1.8 0.6 3.5c1.3 9.4 0.3 14.4 0 15.5z"/><path class="aj" d="m176.7 18l9.3-5 6.8 19.3-6.2-4.1-4.1-7.6z"/><path class="ak" d="m195.1 55.4l-2.5-12.1-5.4-12.9 7.3 6q0.4 1.8 0.6 3.5c1.3 9.4 0.3 14.4 0 15.5z"/><path class="al" d="m187 11.7h-0.1l-13 6.5-6.9-1.5 5.7 3.5-13.7 7.4-0.2 0.3-0.1 0.1-3.3 1.4c0 0 0.6-1 1.6-2.5 3.7-5.6 12.3-18.4 12.3-18.4l11 1.1 6.5 2z"/><path class="am" d="m161.8 18.3l-10.2-5.4h-0.1l-6.2 4.8-7.9 6.2-12.5 11.4-5.1 4.6c0 0 0-2.2 0.1-5.2 0.3-4 0.9-9.6 2.3-13.5 2.5-6.6 10.9-19.3 13.6-20.7q0 0 0.1-0.1 0.4-0.1 1.1-0.2c2.5-0.3 7.7-0.1 11.8 0.1h0.1c3.3 0.2 5.9 0.4 6.1 0.4z"/><path class="an" d="m134.1 4.1l8.6 0.7-4 1.4-9.6 3.8-5 8.5 5.7-1.5-6.9 4.7-1.1 5 3.9-0.9-4.1 3.4-1.7 5.5c0.3-4 0.9-9.6 2.3-13.5 2.5-6.6 10.9-19.3 13.6-20.7z"/><path class="ao" d="m132.7 26.5l4.7-2.6-12.5 11.4 0.7-7.3 0.5 5.3 4.7-5.2v-9.9z"/><path class="ap" d="m145.5 3.7l-0.2 14-7.9 6.2 1-14.7z"/><path class="aq" d="m161.1 16.9l-9.5-4h-0.1c0.4-1.6 0.8-2.9 0.8-3.1 0.1-0.6-2-7.8-2-7.8l4.7-1.3z"/><path class="ar" d="m168.1 209.9l-11.3-8.8c0 0-1-4.3-2.4-11.5-1.1-5.4-2.3-12.3-3.5-20.1q-0.1-1.2-0.3-2.5-0.2-1-0.3-2.1-0.4-2.7-0.7-5.6-0.5-4.6-1-9.5-0.2-2.6-0.4-5.2c-0.9-13.3 0.1-36.3 1.5-57.5q0.2-3.7 0.4-7.3c1.1-15 2.2-28.4 2.9-36.1q0-0.1 0-0.1c0.4-4.2 1.9-20.8 1.9-20.8l8.5 5.9c0 0-1.6 8-3.5 20.7-0.6 3.4-1.1 7.2-1.7 11.2-1 7.2-2 15.2-2.9 23.7q-0.3 3.4-0.7 7c-1.6 17.5-2.5 36.6-1.8 54.2q0.2 3.3 0.5 6.6 0.4 4.5 1 8.8 0.5 3.4 1.1 6.6 0.3 1.6 0.7 3.2 0.2 1.4 0.5 2.8c1.8 7.8 3.8 15 5.7 20.8 3.1 9.6 5.8 15.6 5.8 15.6z"/><path class="c" d="m155.9 189.1l-1.5 0.5c-2.1-10.6-4.9-27.2-6.2-45-1.6-24.5 3.1-81.4 4.8-101l-1.2 32.4-0.3 4.4c0 0-1.3 15.5-1.7 16.7-0.4 1.2-0.9 22.8-0.9 22.8l1.5 0.8-1.5-0.2c0 0-0.5 4.2-0.3 4.8 0.3 0.5-0.1 5.5-0.1 5.5v5.3l0.8 0.6-0.1 7.6c0 0-0.3 2.8 0.1 5.1 0.4 2.3 1.5 9.2 1.5 9.2l1.3 12.2 1.8 10.1 1 2.4z"/><path class="as" d="m158.2 60.6l-0.7-1.8-4.3-11.6-0.2-3.5q0-0.1 0-0.1c0.4-4.2 1.9-20.8 1.9-20.8l8.5 5.9c0 0-1.6 8-3.5 20.7q-0.2 1.3-0.5 2.6-0.6 4.1-1.2 8.6z"/><path class="at" d="m154.6 91.3l-4.9-4.2q0.2-3.7 0.4-7.3l5.2 4.5q-0.3 3.4-0.7 7z"/><path class="au" d="m154.3 160.9l-4.7-1.6q-0.5-4.6-1-9.5l4.7 2.3q0.4 4.5 1 8.8z"/><path class="av" d="m156.1 170.7l-5.5-3.7q-0.2-1-0.3-2.1l5.1 2.6q0.3 1.6 0.7 3.2z"/><path class="aw" d="m168.1 209.9l-11.3-8.8c0 0-1-4.3-2.4-11.5-1.1-5.4-2.3-12.3-3.5-20.1l5.7 4c4.6 20.8 11.5 36.4 11.5 36.4z"/><path class="ax" d="m147.2 27.8l11.6 0.6v0.1l2.8 7.3 3.6 9.3 4.8 16.3 2 6.6c0 0 1.1-1.9 2.5-4.5 1.9-3.6 4.3-8.7 5.1-12.7 1.3-7.1 0.7-22.2-0.9-24.8q0-0.1-0.1-0.1-0.2-0.3-0.8-0.8c-1.9-1.6-6.5-4.1-10.2-6-2.9-1.6-5.3-2.8-5.5-2.9z"/><path class="ay" d="m178.3 29.9l-7.8-3.9 2.7 3.4 6.3 8.2-0.1 9.8-4.1-4.2 3.5 7.7-1.7 4.8-2.9-2.8 1.8 5-1.5 5.6c1.9-3.6 4.3-8.7 5.1-12.7 1.3-7.1 0.7-22.2-0.9-24.8z"/><path class="az" d="m167.9 49.8l-2.7-4.7 4.8 16.3 3.2-6.6-3.2 4.3-1.3-6.9 5.1-8.5z"/><path class="aA" d="m168.7 23.7l-7.1 12.1 3.6 9.3 6.7-13z"/><path class="aB" d="m148.6 27l10.2 1.4v0.1c0.5-1.6 0.9-2.9 0.9-3.1 0.3-0.6 5.8-5.7 5.8-5.7l-3.4-3.5z"/><path class="aC" d="m143.4 33.3l-1.5 4.8-1.3 17.4 5.8-15z"/><path class="aD" d="m162.1 16.4l-0.5 0.9-13.8 21.2-0.7 1.1-2.3-5 1.6 6.2-5.8 14.7q0 0-0.1-0.5 0 0 0 0c-0.8-2.6-4.4-15.2-3.4-26.4 0.2-2.4 0.8-4.7 1.5-6.8q0.1-0.1 0.1-0.2c3.3-8.7 10-14.2 10-14.2l9.2 6.2z"/><path class="aE" d="m144.9 24.1l-7.3 1q0.5-1.8 1.1-3.5l6.8-0.6z"/><path class="aF" d="m140.5 55c-0.9-2.7-4.4-15.3-3.4-26.4q0-0.2 0-0.3l7.6-2.9-0.4 2.8-6.6 3.7 0.2 7.4 3.3-1.7c0 0.1-2.7 3.9-2.9 4.9-0.2 1.1 2 11.7 2.2 12.5z"/><path class="aG" d="m161.1 16.9l-6 8.5-2.3 4.2-3.4-6.7 2.7 7.9-4.3 7.7-2.8-9.2 2.2-6 1.8-2.3c0 0-1.1-0.3-1.8-0.6-0.5-0.2-6.3 1-8.6 1.4q0.1-0.1 0.1-0.2c3.3-8.7 10-14.2 10-14.2l9.2 6.2z"/><path class="aH" d="m146.1 198.5l-1.2 3.6-20-2.5-9.2-1.1q0 0-0.7 0c-0.1-1-0.2-1.8-0.2-1.8 0 0-0.8-3.3-1.7-7-0.9-3.5-1.9-7.4-2.6-9-1.3-3.4-3.8-5.6-3.8-5.6 0 0 1.1 2.9 2 5.1 0.7 1.8 2.6 13 3.4 18.2-1.1 0-2.5 0-4.1 0l-1.1-3.1-0.3-0.7 0.1 0.3c0 0-0.2-11-2.8-16.7q0 0 0 0-0.2-0.3-0.3-0.7c-3-5.4-8.4-10.3-8.4-10.3l8.2 1.1 6.1 0.9h0.1q0 0 0.2 0.2c0.7 0.9 3.4 4.6 4.6 9.7 1.3 5.9 1.3 11 1.3 11 0 0 0.7-9.2 0-11.9-0.7-2.6-3.1-8.8-3.1-9 0.1 0.2 3.6 6.1 4.2 9 0.7 2.9 1.6 14 1.6 14l0.2-2.8 0.5-6.5 6.9 1.9 1.3 0.4h0.1l1.6 0.4 1.2-0.1 2.4-0.3 1.3-0.2-0.2 10.3 0.2 2.3z"/><path class="aI" d="m146.1 198.5l-1.2 3.6-20-2.5-9.2-1.1q0 0-0.7 0c-0.6 0-1.5-0.1-2.7-0.1h-0.2c-1.1 0-2.5 0-4.1 0-2.2 0-4.8 0-7.5 0h-0.1q-1.1 0-2.1 0-0.9-0.1-1.7-0.1c-4.3 0-8.6 0-11.8 0q-1.1 0-2 0c-2.2-0.1-3.7-0.1-3.8-0.1-0.4 0-4.2-8.3-4.2-8.3l4.9 0.6 3.2 0.4 2.4 0.4 2.7 4.7-2-5 5.5-0.4 3.1-0.2 3.2-0.3h0.8l5.2-0.4 2.8 4.9 0.1 0.3c0 0-0.2-11-2.8-16.7q0 0 0 0-0.2-0.3-0.3-0.7c-3-5.4-8.4-10.3-8.4-10.3l8.2 1.1 6.1 0.9h0.1q0 0 0.2 0.2c0.7 0.9 3.4 4.6 4.6 9.7 1.3 5.9 1.3 11 1.3 11 0 0 0.7-9.2 0-11.9-0.7-2.6-3.1-8.8-3.1-9 0.1 0.2 3.6 6.1 4.2 9 0.7 2.9 1.6 14 1.6 14l0.2-2.8 0.5-6.5 6.9 1.9 1.3 0.4h0.1l1.6 0.4 1.2-0.1 2.4-0.3 1.3-0.2-0.2 10.3 0.2 2.3z"/><path class="aJ" d="m84.8 198.3q-1.1 0-2 0l-3.1-7.8 3.2 0.4z"/><path class="aK" d="m98.3 198.4q-0.9-0.1-1.7-0.1l-5.1-7.7 3.1-0.2z"/><path class="aL" d="m100.5 198.4h-0.1c-0.5-1.5-1.7-5.4-2.6-8.3h0.8c0.7 2.9 1.6 6.8 1.9 8.3z"/><path class="aM" d="m170.6 204l-2.2 4.2-10.8-0.9-3.8-0.4-17.9-1.5 1.7-7.5 1.9-8.5 7.3 3.2-1.2 8.2 2.6-7.6-1.3 7.9 3.2-2.9 7 4 12.7 1.7z"/><path class="aN" d="m169.8 203.9l-7.7-0.3-4.3 2.5-2.4 1-1.4-0.4-0.2 0.2 1.9-4.7-4.7-2.3-5.7 3.4 1.1-10.1-2.4-1.2-2.1 7.5 1.4-7.6-3.1-1.3-2.6 7.3 1.9-8.5 7.3 3.2-1.2 8.2 2.6-7.6-1.3 7.9 3.2-2.9 7 4z"/><path class="aO" d="m126 184.8l-1.1 14.8-9.2-1.1q0 0-0.7 0c-0.6 0-1.5-0.1-2.7-0.1 0.4-1.7 0.9-4.8 0.8-8.7q-0.1-1.6-0.3-3.4c-0.6-5.7-6.1-13.7-9.4-18l6.1 0.9h0.1q0 0 0.2 0.2c0.7 0.9 3.4 4.6 4.6 9.7 1.3 5.9 1.3 11 1.3 11 0 0 0.7-9.2 0-11.9-0.7-2.6-3.1-8.8-3.1-9 0.1 0.2 3.6 6.1 4.2 9 0.7 2.9 1.6 14 1.6 14l0.2-2.8 0.5-6.5z"/></svg>