<svg version="1.2" xmlns="http://www.w3.org/2000/svg" viewBox="0 0 867 77" width="867" height="77"><defs><linearGradient id="P" gradientUnits="userSpaceOnUse"/><linearGradient id="g1" x1="282.4" y1="-30.4" x2="714.9" y2="56.4" href="#P"><stop stop-color="#d6c9cc"/><stop offset=".47" stop-color="#d4ecff"/><stop offset="1" stop-color="#77939a"/></linearGradient></defs><style>.a{fill:url(#g1)}.b{opacity:.2;mix-blend-mode:multiply;fill:#00ce49}.c{opacity:.2;mix-blend-mode:multiply;fill:#315ba7}</style><path class="a" d="m866.3 40.3v36l-174-6.4h-26.4l-59.3-5.6-4-1.8-40.7-0.3c0 0-51.5-10.8-52.8-10.8-0.7 0-59-6.6-115.3-13.1-52.8-6-94.7-6.7-94.7-6.7 0 0-98.6 0.9-103.8-14.4-2.4-7.1-213.1 4.3-193.9-16.7 36.6 11 208.2-2.5 214.4 13.9 5.7 15.4 408.4 13.9 411.9 20.4 3.9 7.4 238.6 5.5 238.6 5.5z"/><path class="b" d="m866.3 31.6l-4.6 43.8-70.8-2.1-98.6-4h-26.4l-25.6-2.6-33.7-3.4-4-2-40.7-0.3c0 0-17.4-4-32.2-7.3-10.7-2.4-20.1-4.4-20.6-4.4-0.7 0-59-7.2-115.3-14.2 63.7 4.5 189.1 12.2 193 9.2 4.9-3.7-37.4-7.4-43.9-8 12.2 0.8 152.1 9.9 153.3 8 1.3-2-64.6-6.3-64.6-6.3l-15.6-4.6-273.6-8.2c112.7 2.2 282.6 0.6 285.3 6 3.9 8.1 238.6 0.4 238.6 0.4z"/><path class="c" d="m866.3 41.6v34.7l-75.4-3 56.2-0.6c0 0-231.1-8.2-232-11-0.9-2.7 170.8 5.5 170.8 1.8 0-3.6-126-5.4-126.9-8.2-1-2.7 94 0.9 94-0.9 0-1.8 48.4-0.9 48.4-3.6 0-2.8-66.9-7.3-72.7-6.8-5.8 0.4-39.2-4.7-39.2-4.7z"/><path class="c" d="m616.9 52.6c0 0.5-6.5 0.9-14.6 0.9-8 0-14.6-0.4-14.6-0.9 0-0.5 6.6-0.9 14.6-0.9 8.1 0 14.6 0.4 14.6 0.9z"/><path class="c" d="m632.5 51.2c0 0.3-2.5 0.5-5.5 0.5-3 0-5.5-0.2-5.5-0.5 0-0.2 2.5-0.4 5.5-0.4 3 0 5.5 0.2 5.5 0.4z"/><path class="c" d="m622.4 54.9c0 0.2-2.4 0.4-5.5 0.4-3 0-5.4-0.2-5.4-0.4 0-0.3 2.4-0.5 5.4-0.5 3.1 0 5.5 0.2 5.5 0.5z"/><path class="c" d="m612.4 48.5c0 0.2-2.5 0.4-5.5 0.4-3 0-5.5-0.2-5.5-0.4 0-0.3 2.5-0.5 5.5-0.5 3 0 5.5 0.2 5.5 0.5z"/><path class="c" d="m627 46.7c0 0.2-3.9 0.4-8.7 0.4-4.8 0-8.7-0.2-8.7-0.4 0-0.3 3.9-0.5 8.7-0.5 4.8 0 8.7 0.2 8.7 0.5z"/><path class="c" d="m644.3 50.3c0 0.3-3.8 0.5-8.6 0.5-4.8 0-8.7-0.2-8.7-0.5 0-0.2 3.9-0.5 8.7-0.5 4.8 0 8.6 0.3 8.6 0.5z"/><path class="c" d="m658 55.3c0 0.5-6.1 0.9-13.7 0.9-7.5 0-13.7-0.4-13.7-0.9 0-0.5 6.2-0.9 13.7-0.9 7.6 0 13.7 0.4 13.7 0.9z"/></svg>