<svg version="1.2" xmlns="http://www.w3.org/2000/svg" viewBox="0 0 426 135" width="426" height="135"><defs><linearGradient id="P" gradientUnits="userSpaceOnUse"/><linearGradient id="g1" x1="84.2" y1="82.1" x2="41.8" y2="195.8" href="#P"><stop stop-color="#ac6171"/><stop offset="1" stop-color="#9b8199"/></linearGradient><linearGradient id="g2" x1="29.9" y1="50.6" x2="-12.5" y2="164.3" href="#P"><stop stop-color="#ac6171"/><stop offset="1" stop-color="#9b8199"/></linearGradient><linearGradient id="g3" x1="39.4" y1="56.4" x2="-3" y2="170.2" href="#P"><stop stop-color="#ac6171"/><stop offset="1" stop-color="#9b8199"/></linearGradient><linearGradient id="g4" x1="119.8" y1="117.4" x2="60.6" y2="276.1" href="#P"><stop stop-color="#ac6171"/><stop offset="1" stop-color="#9b8199"/></linearGradient><linearGradient id="g5" x1="40.9" y1="44.8" x2="-11.9" y2="186.2" href="#P"><stop stop-color="#ac6171"/><stop offset="1" stop-color="#9b8199"/></linearGradient><linearGradient id="g6" x1="15.9" y1="39.3" x2="-22.2" y2="141.4" href="#P"><stop stop-color="#ac6171"/><stop offset="1" stop-color="#9b8199"/></linearGradient><linearGradient id="g7" x1="19.4" y1="43" x2="-17.8" y2="142.5" href="#P"><stop stop-color="#ac6171"/><stop offset="1" stop-color="#9b8199"/></linearGradient><linearGradient id="g8" x1="232.6" y1="-49" x2="258.7" y2="108.9" href="#P"><stop stop-color="#b03752"/><stop offset="1" stop-color="#9a5a98"/></linearGradient><linearGradient id="g9" x1="252" y1="93" x2="181.4" y2="66.9" href="#P"><stop stop-color="#b03482"/><stop offset="1" stop-color="#610c57"/></linearGradient><linearGradient id="g10" x1="231.9" y1="205.3" x2="229.5" y2="166" href="#P"><stop stop-color="#b03482"/><stop offset="1" stop-color="#600b67"/></linearGradient></defs><style>.a{opacity:.9;mix-blend-mode:multiply;fill:#bcb2d7}.b{fill:url(#g1)}.c{fill:url(#g2)}.d{fill:url(#g3)}.e{fill:url(#g4)}.f{fill:url(#g5)}.g{fill:url(#g6)}.h{fill:url(#g7)}.i{opacity:.3;mix-blend-mode:multiply;fill:#ad70a3}.j{opacity:.9;mix-blend-mode:multiply;fill:#927dd7}.k{fill:url(#g8)}.l{fill:url(#g9)}.m{opacity:.3;mix-blend-mode:multiply;fill:#af44a2}.n{opacity:.7;mix-blend-mode:screen;fill:#fa535e}.o{opacity:.3;mix-blend-mode:screen;fill:#fa535e}.p{opacity:.5;mix-blend-mode:screen;fill:#fa535e}.q{opacity:.2;mix-blend-mode:multiply;fill:#af44a2}.r{opacity:.4;mix-blend-mode:multiply;fill:#af44a2}.s{fill:url(#g10)}</style><path class="a" d="m13.7 64l12.8 4.5 31.1 1.9-11-4.6z"/><path class="a" d="m0.9 64.9l8.3 2.7h2.7l-0.9-1.8-5.6-1.4z"/><path class="a" d="m9.8 62.8l3 1.2 0.4-1.2z"/><path class="a" d="m21 53.9l10.1 3.7h6.4l-3.5-4.6z"/><path class="a" d="m86.3 55.3c0.5 0.5 10.5 3.2 10.5 3.2h10.1l-7.3-3.6z"/><path class="a" d="m107.8 56.7l21.9 5.5 8.2 1.8 43.9 3.6-13.8-5.9z"/><path class="b" d="m100.5 54.5v2.2h-8.7l-6.2-1.1 7.4-3.3 0.2 0.1z"/><path class="c" d="m34.5 53.1v2h-8l-5.8-1 6.5-2.8 0.4-0.2z"/><path class="d" d="m37.3 54.4l2.1 0.3h2.9v-0.7l-2.5-0.7z"/><path class="e" d="m168.7 62.1l-2-0.1-26.5-1-8-0.9-10.6-1.2-14.9-2.2 9.9-4.4 2.5-3.2 6.2-5.5 13.3 7.3 12.7 6.9 7 1.1 6.7 1z"/><path class="f" d="m49.2 67.6l-16.5-0.4h-7.8l-1.9-1.6-9.2-1.6 6.9-3.2 8.8-0.8 4 1.2 14.8 4.4z"/><path class="g" d="m10.6 65.6h-7.8l-2.3-0.4 4.6-2.8h1.8z"/><path class="h" d="m12.4 62.8h-2.1l-1.1-0.2 2.1-1.8h0.9l1.6 2z"/><path class="i" d="m49.2 67.6l-16.5-0.4h-7.3l3.8-6.9 4.3 0.9 14.8 4.4z"/><path class="i" d="m34.5 53.1v2h-7.7l0.4-3.8 0.4-0.2z"/><path class="i" d="m10.6 65.6h-5.5l0.8-3.2h1z"/><path class="i" d="m100.5 54.5v2.2h-7.3v-4.3z"/><path class="i" d="m166.7 62l-26.5-1-8-0.9-0.7-4.3-11.8-2.8 5.4-3.6v-5.5l13.5 7 13 6.7 6.7 1.3 5.7 1.1z"/><path class="j" d="m87.5 114l41.4 13.8 26.4-4.6 13.8 4.6 146 6.9 93-2.3 17.3-5.8-75.9-13.7 13.8-3.5-9-1.5h3.8l12.1 1.5-4.6-2.3h-37.9l-126.4-1.1-46.3-6.2z"/><path fill-rule="evenodd" class="k" d="m342.5 77.7c0 2.9-1.8 8.6-3.6 13.5q-0.1 0-0.1 0.1c-1 2.6-1.9 4.9-2.5 6.4-0.5 1.2-0.8 1.9-0.8 1.9l-1.1 6.6-66.6 3.1-88.3 4c0-0.4-2.6-3.4-5.2-6.4l-9.5 0.5h-0.8l-12.9 0.6-18.7 0.8-45.2 6.3 0.5-0.5 15.8-20.2 17.1 3.7 1.8-6 13.7 3.4c0 0 1.1-0.7 3-1.9q0 0 0 0c3.5-2.3 9.5-6.3 15.5-10.7q1.3-1 2.7-2 0.8-0.7 1.7-1.4h6.8l-2.3-0.6-1.4-0.5-0.8-0.7q0.5-0.4 0.9-0.8c5.8-4.7 10.4-9.3 10.6-12.2 0.3-3.4-2-8.6-4.7-13.8q-0.1-0.2-0.2-0.4l1.1-0.9 0.5-0.4 0.4-1.5-2.4-0.7-1.4-0.4-0.6-0.6q-0.3-0.6-0.6-1.1-1-1.8-1.8-3.5c-1.8-3.5-3-6.4-2.5-7.8q0.2-0.5 0.9-1.2c2.8-2.7 11.8-7 19.6-10.4q0 0 0 0c7.1-3.1 13.2-5.4 13.2-5.4l2.2-9.7 22.5-4.1 13.9-2.6v6.7l10-3.7 2.9 2.6-10 18.2-1.5 32.6c0 0 60.1-4.8 61.2-4.1 0.7 0.5 7.9 7.6 13.3 13q0 0 0 0 0 0 0 0c3.3 3.3 5.9 5.9 5.9 5.9q0.1 0 0.1 0c1.6 0 25.2 0.8 27.6 5.5q0.1 0.4 0.1 0.8zm-133.7-48.5l-0.8 0.3-4.7 8.6-5.7 10.3v3.3q0.9-0.4 2-0.9c3.2-1.4 6.9-3.2 7.3-4.2 0.3-0.6 0.6-3 0.9-6 0.4-3.7 0.8-8.2 1-11.4z"/><path class="l" d="m222.1 43.2v10l-10-0.3-17.4 12.6 1.7-3.7 1.2-2.6v-7.5c2.5-0.6 5.7-1.6 7.8-2.5 1.8-0.8 9.4-1 9.7-1.5 0.1-0.4-6.8 0.7-6.7-1.1 0.2-4.2 0.7-13.6 0.7-17.4l1.5-0.6 8.4-3.3 2.4-1-1.9 16.3z"/><path class="m" d="m338.9 91.2l-0.1 0.1-2.5 6.4c0 0-6.7-3-10.4-4.1-3.7-1.1-37.5 7.4-37.5 7.4l-9.6 4.1-11 4.2-88.3 4c0-0.4-2.6-3.4-5.2-6.4l-9.5 0.5h-0.8l-12.9 0.6-18.7 0.8-45.2 6.3 0.5-0.5 15.8-20.2 17.1 3.7 1.8-6 13.7 3.4c0 0 1.1-0.7 3-1.9q0 0 0 0c3.5-2.3 9.5-6.3 15.5-10.7 4.9 1.5 13.5 4.1 16.4 5.2 4 1.5 29.6 0 29.6 0l34.9-9.2 7.7-7.5 3.7-11.9 11.2 6 0.7 18.5c0 0 14.1 0.7 18.1 0.4 4.1-0.4 27.5-6.3 27.5-6.3l10.4-3.1 19.8 5.9 4.3 10.3z"/><path class="n" d="m241.7 56.2l26 5.2 4.4-0.4 2.3 1.9 5.9-0.8c0 0 8.5-2.2 10.4-3.3 1.8-1.1 4.8-6.3 4.8-6.3z"/><path class="m" d="m197.6 80.7c0 0-24.1-0.4-36.7-0.1q-0.5 0-1.1 0.1-1.3 0-2.5 0.2 0.8-0.7 1.7-1.4h6.8l-2.3-0.6-1.4-0.5-0.8-0.7q0.5-0.4 0.9-0.8l3.4 0.4z"/><path class="m" d="m197.6 54.1v1c0 0-14.8-7.4-20.3-6.7-2.1 0.3-5 1.1-7.8 2q-0.7 0.3-1.4 0.5-0.1-0.2-0.2-0.4l1.1-0.9 0.5-0.4 0.4-1.5-2.4-0.7-1.4-0.4-0.6-0.6q-0.3-0.6-0.6-1.1c0 0 0.4-0.1 1.2-0.2 2.6-0.3 8.6-0.8 11.2 0 3.3 1.1 20.3 9.4 20.3 9.4z"/><path class="m" d="m176.6 24.1c0 0 27-5 34-3.8 7.1 1.1 14.5 5.1 15.2 5.9 0.8 0.7 8.5 28.9 8.5 28.9l0.8-22.2c0 0-6.3-10-7.1-10.8-0.7-0.7-12.6-3-12.6-3 0 0 14.1 1.2 15.6 1.5 1.5 0.4 4.8 3.7 4.8 3.7l0.7-1.5c0 0-5.9-4-6.6-3.7-0.8 0.4-19.7-0.7-21.1-0.7-1.5 0-16.3-1.1-16.3-1.1z"/><path class="o" d="m252.9 77.7l-13.7 6.7c0 0-10.1 2.9-13.8 4.8-3.7 1.8-65.2 11.8-65.2 11.8l-14.4-3.3-9.7-0.5-4.8-0.2-8.9-4.9 13.7 3.4 23.7 3.7c0 0 51.9-8.9 63.8-14.5 15.3-7.1 17.1-8.8 16.8-9.1z"/><path class="o" d="m240.4 75.6l-0.5-0.1c0 0 0.4-0.1 0.5 0.1z"/><path class="p" d="m103.5 94.4l18.5 7.8-1.1-3.8z"/><path class="q" d="m342.5 77.7c0 5.6-7 21.9-7 21.9l-1.1 6.6-21.1 1 0.3-9.5c0 0 3.7-10 3.9-11.7 0.2-1.6-19.1-7.2-19.1-7.2l-5.9-17 3.6-8.8c1.9 1.8 8 7.8 12.7 12.5q0 0 0 0 0 0 0 0c3.3 3.3 5.9 5.9 5.9 5.9q0.1 0 0.1 0c1.6 0 25.2 0.8 27.6 5.5q0.1 0.4 0.1 0.8z"/><path class="q" d="m261.4 111.4v-10.4l-11.1-10 2.9-13.3-13.7 9.1-14.8 5.3-54.5 8.9 9.3 12.3z"/><path class="r" d="m105 96.2l-17.8 18.9 45.2-6.3 41.9-1.8-24.1-1.9-22.6 0.4z"/><path class="o" d="m342.4 76.9c-1.2 1.7-7.7 4.1-14.8 6.3-9.3 2.8-19.5 5.2-19.5 5.2v1.5l-34.1 6-13 5.5-81.9 1.9-8.5-2.3c0 0 98.2-10.3 98.6-11.4 0.3-1.2 47.4-14.1 47.4-15.6 0-0.5-0.7-1.5-1.8-2.6 1.6 0 25.2 0.8 27.6 5.5z"/><path class="n" d="m164.9 44.9c-2.7-5-4.9-9.4-4.3-11.3 0.8-2.5 11.4-7.6 20.5-11.6-6.8 3.3-20.1 10-20.1 12.7 0 1.4 2.3 5.3 5.1 10q0.7 1.1 1.4 2.3l-1.4-0.4-0.6-0.6q-0.3-0.6-0.6-1.1z"/><path class="n" d="m159 79.5h3.5q-0.8 0.6-1.6 1.1c-9.8 6.6-20.9 12.5-21.8 13 4-2.6 11.4-7.5 18.2-12.7q0.8-0.7 1.7-1.4z"/><path class="n" d="m175.8 66.2c-0.5 3-4.7 7-10.2 11.1q-1 0.8-2.1 1.6l-1.4-0.5-0.8-0.7q0.5-0.4 0.9-0.8c5.8-4.7 10.4-9.3 10.6-12.2 0.3-3.4-2-8.6-4.7-13.8q-0.1-0.2-0.2-0.4l1.1-0.9q0.3 0.4 0.5 0.8c3.6 6.2 6.8 12.5 6.3 15.8z"/><path class="n" d="m196.5 6.9l22.3-4.1-20 4.5 3.3 1.8 2.2 4.1-10 3.4z"/><path class="m" d="m207.7 30.3l-10.1 17.4 4.5-10 1.1-2.6-7.4-5.9-11.1-2.3 11.5 1.1 8.5 4.9z"/><path class="m" d="m240.6 69.9c-0.5-0.8-6.6-10.9-21.5-15.1l-4.4 0.3-32.6 19.3 29.5-21.2 0.5-0.3 10 0.3v-10l-2.6-2.6 1.9-16.3 1.4 13.7c0 0 4.5 3.4 5.2 6.3 0.5 1.8 2.2 6.9 3.7 11 1.1 0.8 1.9 1.3 1.9 1.3z"/><path class="q" d="m308.1 89.9l-3.7 10.8-1.9 7.1-27.5 1.1 0.1-12.7z"/><path class="m" d="m203.3 38.1l-5.7 10.3v1.6c-8.1-3.9-20-10.2-21.1-10.5-1.1-0.3-9.7 1.3-13.4 1.9-1.8-3.5-3-6.4-2.5-7.8q0.2-0.5 0.9-1.2c1.7-0.7 3.3-1.4 4.1-2.1 3.6-3 16.9 0 16.9 0l-1.5-1.1c0 0 6.6 0.7 8.5 1.4 0.8 0.4 7 3.7 13.8 7.5z"/><path class="m" d="m209.9 12.5l15.2-3.7 3.3-6.7 4.5-1.3v6.1l8.2-3 0.6 4.1-5.1 10.8c0 0-5.2-6.3-7.5-7.4-2.2-1.1-5.9-1.1-5.9-1.1z"/><path class="s" d="m87.7 114.6l37.3-5.8 49.3-1.8 5.2 6.3 18.1-2.3 7.1 0.8 10.4-4.5 7 1.5 3.7 2.2 108.6-5.5 10-2.2 10 2.2v1.8h3v-1.8h3.7l4.4 1.8-186.4 6.3-3.3-4.8-44.9 4.8z"/><path class="p" d="m136.1 95.5v1.7l-4.8-0.2-8.9-4.9z"/><path class="n" d="m242.9 3.2l-4.5 3-5.5 0.7z"/><path class="p" d="m342.4 76.9c-1.2 1.7-7.7 4.1-14.8 6.3l-11-9.2c0-0.5-0.7-1.5-1.8-2.6 1.6 0 25.2 0.8 27.6 5.5z"/></svg>