<svg version="1.2" xmlns="http://www.w3.org/2000/svg" viewBox="0 0 950 410" width="950" height="410"><defs><linearGradient id="P" gradientUnits="userSpaceOnUse"/><linearGradient id="g1" x1="328.8" y1="311.5" x2="331.2" y2="-30" href="#P"><stop stop-color="#ffd1b7"/><stop offset=".63" stop-color="#ff809c"/><stop offset="1" stop-color="#736bd1"/></linearGradient><linearGradient id="g2" x1="22.7" y1="138.9" x2="894.8" y2="138.9" href="#P"><stop stop-color="#ffbf20"/><stop offset="1"/></linearGradient><radialGradient id="g3" cx="98.4" cy="135.9" r="74" href="#P"><stop offset="0" stop-color="#fd9400"/><stop offset="1"/></radialGradient><radialGradient id="g4" cx="104.4" cy="138.7" r="70.8" href="#P"><stop offset="0" stop-color="#fd9400"/><stop offset="1"/></radialGradient><radialGradient id="g5" cx="137.2" cy="145.1" r="70.8" href="#P"><stop/><stop offset=".75" stop-color="#fd9400"/><stop offset=".98"/></radialGradient><radialGradient id="g6" cx="118.1" cy="144.1" r="19.7" href="#P"><stop offset="0" stop-color="#fd9400"/><stop offset="1"/></radialGradient></defs><style>.a{fill:url(#g1)}.b{opacity:.5;mix-blend-mode:screen;fill:url(#g2)}.c{fill:#fff}.d{mix-blend-mode:screen;fill:url(#g3)}.e{opacity:.5;mix-blend-mode:color-dodge;fill:url(#g4)}.f{opacity:.2;mix-blend-mode:color-dodge;fill:url(#g5)}.g{opacity:.5;mix-blend-mode:color-dodge;fill:url(#g6)}</style><path class="a" d="m843.7 409.8h-821v-409.7h821z"/><path class="b" d="m26.4 148.9c0 0 242 21 241.1 25.6-1 4.6-31.8 3.7-31.8 5.5 0 1.8 38.5-0.9 39.5 2.7 0.9 3.7 98.3 7.3 98.3 7.3l120.4-8.2 400.9-42.9-2.9 84-582.8 12.1-286.4-4.8z"/><g style="opacity:.2;mix-blend-mode:screen"><path class="c" d="m783.2 128.2c-5.3 9.7-110.1 6-110.1 6 0 0 5.2 1.2-1.7 10.8-6.9 9.5-63.2 4.1-73.2-5.1-9.9-9.3 16.3-11.1 16.3-11.1 0 0 3.5-16.2-17.5-18.9-20.9-2.6-65.9 9.4-65.9 9.4 0 0 23.4 3.5 23 8.4-0.4 4.9-202.8-16.9-202.8-16.9 0 0 18 6.8 13.5 8.7-4.4 1.9-349.1-53.1-365.1-55.7l186.5 24.1c0 0 19.9-3.2 35.4-4.5 15.5-1.2 15.6 7.2 15.6 7.2 0 0 110.1-27.3 134.5-18 24.4 9.3 13.1 29.2 13.1 29.2 0 0 42.6-12.8 57.4-3.2 14.8 9.7-2.1 17.2-2.1 17.2l71.6 3c0 0 7-24 14-25.1 7.1-1.2 9.2 4.5 9.2 4.5 0 0 12.9-25 57.5-24.9 5.3 0 9.9 0.5 14.1 1.3 30.6 6 30.9 31.3 30.9 31.3 32-25.7 27.6-8.1 27.6-8.1l62.6-0.4 88-22.6-65.8 10.6c0 0 5.7-9.4 38.4-15.8 32.7-6.5 148.5-28.7 148.5-28.7l5.5 7 8.1 10.1-178.2 53.9c0 0 16.3 6.7 11.1 16.3z"/><path class="c" d="m422.4 138.4l67.8 10.8c0 0-16.2-10.6-28.1-12-11.8-1.5-27.6 0.3-27.6 0.3 0 0-5.3-5.5-11.3-5-6.1 0.5-7.4 1.5-7.4 1.5l-138.1-17.7-4.7-0.6z"/><path class="c" d="m636.2 166.3l-71.3-9 20.3-0.9c0 0-6.8-4.9 1.4-6.2 8.3-1.4 29.5 10.9 29.5 10.9 0 0 2-2.7 6.9-2.3 4.9 0.4 21.6 7.4 22.8 7.2 1.2-0.2 30-1.2 58-6.9 28-5.7 44.2-9.6 44.2-9.6 0 0-37.8 12.1-43.7 13.1-5.8 0.9-68.1 3.7-68.1 3.7z"/></g><path class="c" d="m124.1 135.7c0 14.4-11.7 26-26.1 26-14.3 0-26-11.6-26-26 0-14.4 11.7-26 26-26 14.4 0 26.1 11.6 26.1 26z"/><path class="d" d="m172.5 135.9c0 40.2-33.2 72.7-74.1 72.7-40.9 0-74-32.5-74-72.7 0-40.2 33.1-72.8 74-72.8 40.9 0 74.1 32.6 74.1 72.8z"/><path class="e" d="m175.2 138.7c0 38.4-31.7 69.6-70.8 69.6-39.2 0-70.9-31.2-70.9-69.6 0-38.5 31.7-69.6 70.9-69.6 39.1 0 70.8 31.1 70.8 69.6z"/><path class="f" d="m208.1 145.1c0 38.4-31.7 69.6-70.9 69.6-39.1 0-70.8-31.2-70.8-69.6 0-38.5 31.7-69.7 70.8-69.7 39.2 0 70.9 31.2 70.9 69.7z"/><path class="g" d="m137.8 144.1c0 10.7-8.9 19.4-19.7 19.4-10.9 0-19.7-8.7-19.7-19.4 0-10.7 8.8-19.3 19.7-19.3 10.8 0 19.7 8.6 19.7 19.3z"/></svg>