<svg version="1.2" xmlns="http://www.w3.org/2000/svg" viewBox="0 0 936 280" width="936" height="280"><defs><linearGradient id="P" gradientUnits="userSpaceOnUse"/><linearGradient id="g1" x1="447" y1="426.7" x2="396.3" y2="64.1" href="#P"><stop stop-color="#6672b0"/><stop offset="1" stop-color="#f28b9c"/></linearGradient><linearGradient id="g2" x1="304.4" y1="8.9" x2="306.6" y2="35.1" href="#P"><stop stop-color="#b03983"/><stop offset="1" stop-color="#44106b"/></linearGradient></defs><style>.a{fill:url(#g1)}.b{opacity:.3;fill:url(#g2)}.c{opacity:.3;mix-blend-mode:multiply;fill:#ae4ba2}.d{opacity:.1;mix-blend-mode:multiply;fill:#ae4ba2}</style><path class="a" d="m0.6 129.2c0 0 191.8-50.2 210.9-61.2 19.2-11 49.4-42 49.4-42l10.9-22.8c0 0 11.9-2.8 18.3-2.8 6.4 0 11.9 6.4 11.9 6.4l13.7 4.6c0 0 16.4 26.5 31 39.2 14.6 12.8 58.5 26.5 58.5 26.5 0 0 34.7-16.4 38.3-21 3.7-4.5 19.2-18.2 19.2-18.2l12.8 4.5c0 0 9.2 19.2 44.3 25.6 35.1 6.4 72.6 6.4 72.6 6.4l86.8-13.4 54.7-43.2h17.4l69.4 59.3 112.3-6.4 2.5 208.8-848-1.3z"/><path class="b" d="m275.5 7.7l7.3 13.7 23.7 11 12.8-5.5c0 0-6.4-8.2-6.4-9.1 0-0.9-0.9-4.6-0.9-4.6l-4.6-1.8-7.3 0.9c0 0-2.7-4.6-9.1-4.6-6.4 0-15.5 0-15.5 0z"/><path class="c" d="m463.6 38.8l0.9 4.5 5.5 3.7 3.6-3.7z"/><path class="d" d="m59.9 123.7c0 0 126.1-21.9 130.6-26.5 4.6-4.5 27.4-17.3 27.4-17.3l18.3-15.6 32-27.4 7.3-12.7 2.7 4.5 25.6 14.6 18.2-3.6 4.6-4.6-6.4-12.8c0 0 13.7 17.4 16.5 19.2 2.7 1.8 13.7 13.7 17.3 16.5 3.7 2.7 34.7 16.4 34.7 16.4l36.5 9.1c0 0 16.5-13.7 17.4-14.6 0.9-0.9 4.6-8.2 5.5-9.1 0.9-0.9 8.2-7.3 8.2-7.3l3.6-8.2 10.1 3.6 5.5-2.7c0 0 5.4 8.2 10 10.9 4.6 2.8 28.3 13.7 28.3 13.7l16.5 0.9 181.7-21 21.9-29.2 9.2 3.7h8.2v-3.7l28.2 21.4 38.4 44.4-579.4 35.9z"/><path class="d" d="m165.9 119.1l54.8-16.4 25.5-22.8 22.9-8.2 23.7-24.7-2.7 21 5.5 9.1 34.7 6.4 0.9-31-3.7-12.8 26.5 21.9 30.1 21 41.1 11 30.2-7.3 11.9-10.1 2.7-23.7 5.5-4.6 4.5 9.1 15.6 13.7 31 6.4 149.8 2.8 63.9-18.3 13.7-26.5-1.8-9.1 41.1 29.2 6.4 51.2z"/></svg>