<svg version="1.2" xmlns="http://www.w3.org/2000/svg" viewBox="0 0 621 421" width="621" height="421"><defs><linearGradient id="P" gradientUnits="userSpaceOnUse"/><linearGradient id="g1" x1="359.4" y1="507.5" x2="-98.2" y2="209.6" href="#P"><stop stop-color="#6672b0"/><stop offset="1" stop-color="#f28b9c"/></linearGradient><linearGradient id="g2" x1="227.8" y1="-21.6" x2="305.9" y2="17.7" href="#P"><stop stop-color="#fde9c2"/><stop offset=".99" stop-color="#fdacca"/></linearGradient><linearGradient id="g3" x1="331.9" y1="74.9" x2="335.9" y2="89.8" href="#P"><stop stop-color="#b03983"/><stop offset="1" stop-color="#44106b"/></linearGradient><linearGradient id="g4" x1="253.9" y1="92.3" x2="417.3" y2="145.5" href="#P"><stop stop-color="#fde9c2"/><stop offset=".99" stop-color="#fdacca"/></linearGradient><linearGradient id="g5" x1="408.8" y1="37.3" x2="421.3" y2="79.1" href="#P"><stop stop-color="#fde9c2"/><stop offset=".99" stop-color="#fdacca"/></linearGradient><linearGradient id="g6" x1="373.7" y1="68.7" x2="384.5" y2="105.1" href="#P"><stop stop-color="#fde9c2"/><stop offset=".99" stop-color="#fdacca"/></linearGradient><linearGradient id="g7" x1="170.4" y1="-27.9" x2="261.7" y2="13.7" href="#P"><stop stop-color="#fde9c2"/><stop offset=".99" stop-color="#fdacca"/></linearGradient><linearGradient id="g8" x1="152.9" y1="45.9" x2="262.2" y2="95.8" href="#P"><stop stop-color="#fde9c2"/><stop offset=".99" stop-color="#fddfca"/></linearGradient><linearGradient id="g9" x1="136.4" y1="90.9" x2="243.7" y2="139.9" href="#P"><stop stop-color="#fde9c2"/><stop offset=".99" stop-color="#fddfca"/></linearGradient><linearGradient id="g10" x1="234.1" y1="-45.2" x2="259.3" y2="-10.3" href="#P"><stop stop-color="#fde9c2"/><stop offset="1" stop-color="#b47ae5"/></linearGradient><linearGradient id="g11" x1="182.4" y1="51.5" x2="266.7" y2="32.1" href="#P"><stop stop-color="#fde9c2"/><stop offset=".99" stop-color="#fdacca"/></linearGradient><linearGradient id="g12" x1="223" y1="-1.7" x2="294.3" y2="82.6" href="#P"><stop stop-color="#fde9c2"/><stop offset="1" stop-color="#b47ae5"/></linearGradient><linearGradient id="g13" x1="366.8" y1="67" x2="378.3" y2="105.7" href="#P"><stop stop-color="#fde9c2"/><stop offset=".99" stop-color="#fdacca"/></linearGradient><linearGradient id="g14" x1="258.5" y1="97.2" x2="412.8" y2="147.4" href="#P"><stop stop-color="#fde9c2"/><stop offset=".99" stop-color="#fdacca"/></linearGradient><linearGradient id="g15" x1="258" y1="98.6" x2="411.8" y2="148.7" href="#P"><stop stop-color="#fde9c2"/><stop offset=".99" stop-color="#fdacca"/></linearGradient><linearGradient id="g16" x1="254.9" y1="95.4" x2="436.9" y2="154.6" href="#P"><stop stop-color="#fde9c2"/><stop offset=".99" stop-color="#fdacca"/></linearGradient><linearGradient id="g17" x1="415.9" y1="70.2" x2="424.2" y2="97.7" href="#P"><stop stop-color="#fde9c2"/><stop offset=".99" stop-color="#fdacca"/></linearGradient><linearGradient id="g18" x1="258.9" y1="92" x2="414.3" y2="142.6" href="#P"><stop stop-color="#fde9c2"/><stop offset=".99" stop-color="#fdacca"/></linearGradient><linearGradient id="g19" x1="293.6" y1="73.8" x2="305.7" y2="95.5" href="#P"><stop stop-color="#fde9c2"/><stop offset="1" stop-color="#b47ae5"/></linearGradient><linearGradient id="g20" x1="406.3" y1="86.1" x2="435.5" y2="99.3" href="#P"><stop stop-color="#fde9c2"/><stop offset=".99" stop-color="#fdacca"/></linearGradient><linearGradient id="g21" x1="382.5" y1="86.9" x2="425.8" y2="104" href="#P"><stop stop-color="#fde9c2"/><stop offset=".99" stop-color="#fdacca"/></linearGradient><linearGradient id="g22" x1="384.3" y1="72.7" x2="407.1" y2="93.3" href="#P"><stop stop-color="#fde9c2"/><stop offset="1" stop-color="#b47ae5"/></linearGradient></defs><style>.a{fill:url(#g1)}.b{fill:#f28b9c}.c{opacity:.4;mix-blend-mode:screen;fill:url(#g2)}.d{opacity:.4;fill:url(#g3)}.e{opacity:.1;mix-blend-mode:multiply;fill:#ae4ba2}.f{opacity:.8;fill:#f28b9c}.g{opacity:.3;mix-blend-mode:multiply;fill:#ae4ba2}.h{fill:url(#g4)}.i{fill:url(#g5)}.j{fill:url(#g6)}.k{fill:url(#g7)}.l{fill:url(#g8)}.m{fill:url(#g9)}.n{opacity:.2;mix-blend-mode:multiply;fill:#d7406b}.o{opacity:.2;mix-blend-mode:multiply;fill:url(#g10)}.p{fill:url(#g11)}.q{opacity:.2;mix-blend-mode:multiply;fill:url(#g12)}.r{fill:url(#g13)}.s{fill:url(#g14)}.t{fill:url(#g15)}.u{fill:url(#g16)}.v{fill:url(#g17)}.w{fill:url(#g18)}.x{opacity:.2;mix-blend-mode:multiply;fill:url(#g19)}.y{fill:url(#g20)}.z{fill:url(#g21)}.A{opacity:.2;mix-blend-mode:multiply;fill:url(#g22)}</style><path class="a" d="m611.5 265.8c-1.9-1.5 9.7 154.7 9.7 154.7l-572.7-6.3 37.2-174.1 28.6-23.8 27.4 10c0 0 14-2 37.5-16.3q0.1 0 0.2 0 0-0.1 0.2-0.2c8.6-5.2 17.9-10.9 27-16.8q0 0 0.1 0c25-16 49.4-33.2 58.8-44.7 22.3-27.2 28.7-58.5 28.7-58.5 0 0 5 1.9 14 0 8.3-1.8 35.2-19.4 39.5-22.3q0.6-0.4 0.6-0.4c0 0 23.4 53.3 28.7 62 5.2 8.7 61.5 69.1 75.1 73.6 13.6 4.6 29.1-6 29.1-6l11.7 3.8 20 13.6 54 7.2c0 0 46.5 46 44.6 44.5z"/><path class="b" d="m347.7 67.5l-1.1 6.2-0.1 0.1q0 0 0 0l-12.9 15.3-1-4.8-15.4 9.8c0 0-4.5-2.7-7.1-2-1.6 0.5-6.2-0.3-9.4-0.9-1.1-0.2-2-0.4-2.6-0.6q0 0 0 0c-0.6-0.1-1-0.2-1-0.2l-16.8 42.8 3.4-1.1c0 0-12.9 18.5-19.7 24.2-4.1 3.4-34.2 22.3-57.3 36.7 25-16 49.4-33.2 58.8-44.7 22.3-27.2 28.7-58.5 28.7-58.5 0 0 1.5 0.5 4.2 0.7 2.3 0.2 5.6 0.1 9.8-0.7 3.8-0.8 11.2-4.8 18.7-9.2 9.2-5.4 18.4-11.5 20.8-13.1z"/><path class="c" d="m342 80c-4.8 6.1-7.1-2.7-7.1-2.7 0 0-4.2-1.7-4.4 4-0.3 5.6 5.5 10.5 5.5 10.5 0 0-0.5 0.5-1.4 1.3-3.9-6.3-10.1-16.7-11.3-20.5q-0.1-0.2-0.1-0.5c-1-3.7 3.3-6.4 6.4-4.1 0.9 0.6 1.7 0.9 2.6 0.4 3.5-1.7 3.9-13.7-0.9-15.8-4.8-2.2-10.6 8.9-9.3 20 1 8.5 6.5 19 9 23.4-1.9 1.1-4.2 2.2-6.6 2.3-6.3 0.4-12.8-1.5-12.8-1.5 0 0-7.7-32.5-25.3-38.1-17.6-5.7-34.8 8.9-34.8 8.9 0 0-5.9 15.2-19.8 15.4-14 0.2-9-10.4-9-10.4 0 0-61.8 5.2-69.6 0-11.4-7.6 30.2-9 32.1-9.2-1.4 0.2-19.2 1.8-18.4 3.3 0.9 1.5 44.2 1.7 44.2 1.7 0 0-3.5-18.2 9.1-21.3 12.6-3 19.9 10.1 19.9 10.1 0 0 0.6-57.7 24.5-56.4 24 1.3 27.4 28.9 27.4 28.9 0 0 10.1-7 16.6 1.1 6.4 8 2.7 16.1 2.6 16.3 0.3-0.3 25.8-26.9 30.9-2.8 3.5 16.5 0 25.5 0 25.5 0 0 4.8 4.1 0 10.2z"/><path class="d" d="m347.5 73.2c0 0-0.2 0.4-0.6 1.1-2.8 5-14.4 25.3-22.1 25.3-8.1 0-22.4-7.5-24.1-8.4q-0.2-0.1-0.2-0.1c0 0 12.2-0.2 16.8-0.9 4-0.7 24.5-13.4 29.2-16.4q0 0 0 0 0.1 0 0.1-0.1 0.8-0.5 0.9-0.5z"/><path class="e" d="m347.5 84.1c0 0 12.1 42.3 14 46.1 1.9 3.8 13.2 8.3 13.2 8.3l60.1 54.9 12 19.2h11.7l-44.7 32-96.7-1-5.7 2.6-16.4-11.4h-37.1l22.6-21.3c0 0 80.4-27.4 87.7-22.8 2.6 1.6-1.9-23.8-1.9-23.8l17.1 12.3-2.6-6.8-11.8-30.9-13.2-7.9z"/><path class="e" d="m326.3 104.3c0 0-0.3 6.1-2.6 23.8-2.3 17.8-12.8 57.4-12.8 57.4l-15.2 10.2-3.4 4.9 47.6-6.1-21-1.8-3.1-3.4 16.2-41.5h-4.5l0.7-18.9z"/><path class="e" d="m342.2 129.1l5.3 30.2 10.6 23.8-8-25.7z"/><path class="e" d="m314.3 132.1c0 0-1.9 15.5-1.9 19.2 0 3.8-10.2 27.6-10.2 27.6v-7.2l-25.3 40.8-34.8 13.3-57 1.8 66.1-14.7 21.9-14.3 29.8-52.5 7.6-0.4z"/><path class="f" d="m481.2 197.8l-15.9 6.4h3.8l22.7-4z"/><path class="g" d="m393.2 233.3l118.6-18.5 52.9 6.2z"/><path class="h" d="m339.8 123.6l-19.9 3.6-25.3-2.3c0 0 0.3-0.3 0.8-0.8 1-1 2.6-2.5 4.1-3.7q0 0 0 0c1.3-1.1 2.6-1.9 3.4-1.9 2.3 0 5.7 3.8 5.7 3.8 0 0 1.5-1.5 3-1.5 1.5 0 5.3 2.6 5.3 2.6 0 0 0.2-0.5 0.6-1.3 0.8-1.6 2.3-4.1 4.7-6.1 1.5-1.2 3.4-2.2 5.7-2.4 7.1-0.7 11.4 8.8 11.9 9.9q0 0.1 0 0.1z"/><path class="i" d="m452.1 112.8l-47.4 2.4-1.5 0.1 18.7-7.8 7.5-3-1.1 2.7-2.2 5.3z"/><path class="j" d="m396.2 110.2l-12.4 2.6-11.2-0.8c0 0 2.1-4.8 4.7-4.8 2.1 0 7.3 2.3 9.3 3.3 0.6 0.3 0.9 0.4 0.9 0.4 0 0-0.1-0.2-0.2-0.5-0.4-0.9-0.9-2.7 1.4-3.2 2.1-0.6 5 1.2 6.5 2.2 0.6 0.5 1 0.8 1 0.8z"/><path class="b" d="m347.6 75.4l-2.1 12.3c0 0-7.5 7.2-7.8 7.2-0.3 0-2.7 1.3-3.1 2-0.3 0.7-0.6 2.7-0.6 2.7l-1.4-1.7c0 0-2.1 0.4-3.4 1.4-1.4 1-10.3 3.1-10.3 3.1l-4-3.8c0 0 0 1.7-0.7 1-0.7-0.6-15.8-8.8-16.1-9 0.6 0.2 1.5 0.4 2.6 0.6 1.7 0.9 16 8.4 24.1 8.4 7.7 0 19.3-20.3 22.1-25.3z"/><path class="k" d="m328.7 98.2l-0.6 0.1-4.7 1.3c0 0-18-35.7-54.6-40.9-22.7-3.3-64.7-3.4-93.5-3.1-17.7 0.3-30.4 0.7-30.4 0.7l16.7-1.9c0 0 9.1-20.5 20-20 11.1 0.4 20.3 10.1 20.6 10.4-0.4-0.5-22.5-31.1 16.6-32.8 4.3-0.2 8.1 0.1 11.6 0.8q0 0 0 0c10.2 1.8 17.3 6.7 22.1 11.7 6.5 6.8 8.8 13.7 8.8 13.7 0 0 7.5-5.7 13.5 0 1.3 1.2 2.3 2.5 3.2 3.8q0 0 0 0c3 4.5 3.4 8.6 3.4 8.6 0 0 0.2-0.2 0.6-0.5 1.6-1.1 6.6-3.8 14.7 0.5q0.2 0 0.3 0.1 0.7 0.4 1.5 1v0.1q0.8 0.6 1.6 1.4c10.9 10.8 28.6 45 28.6 45z"/><path class="l" d="m164 59.7c-0.6 0-11.1 0.9-25.1 1.7-18 1-41.8 1.6-57.9-0.3q0 0-0.1 0-2.4-0.3-4.5-0.6c-7.5-1.3-12.5-3.4-13-6.6-2-14.6 25.5-26.1 34.5-23.1 9 3 11.6 13.7 9.3 15.5-2.2 1.8-5.4 1.9-5.4 1.9l11.2 0.7c0 0 4.2-6.5 10.1-3.3 5.8 3.1-4.3 5.9-0.8 9.7 3.5 3.8 15.6 6.1 41.7 4.4z"/><path class="m" d="m94.1 56.6c-0.7 0-114.2 1.8-96.7 1.5 17.5-0.2 18.9-10.7 28.6-8.5 6.2 1.4 6.3 5.5 6.3 5.5 0 0 0.4-1.2 2.5-1.7 4.3-1.1 8 2.7 8 2.7z"/><path class="n" d="m138.9 61.4c-18 1-41.8 1.6-57.9-0.3q0 0-0.1 0c-0.5 0-2.4-0.2-4.5-0.6-4.9-1-11.5-2.9-7.6-6.7 5.7-5.6 29.2-0.1 29.7 0-0.3-0.1-5-2.9-1.1-3.6 4-0.8 14.5 4.4 14.5 4.4 0 0 8.3 5.7 22.1 6.5q2.5 0.1 4.9 0.3z"/><path class="o" d="m328.7 98.1l-0.6 0.2c-15.5-24.4-21.8-28.1-27.1-30.9-26.8-14.2-73.6-13.3-73.6-13.3l-52.1 1.5c0 0 4.9-13.5 17-11.8 12 1.7 21.1 6 21.4 6.1-0.3-0.2-12.1-10.2-5.8-12.8 6.4-2.6 10.9 1.1 10.9 1.1 0 0-15.4-27.2 11.6-25.5q0 0 0 0c10.2 1.9 17.3 6.8 22.1 11.8 7.1 9.3 8.3 20.6 8.3 20.6 0 0 3.4-9.3 11.6-6.9 2.4 0.7 4.2 2.1 5.6 3.8q0 0 0 0c2.2 2.6 3.4 6 4 8.1 0.3 1.2 0.5 2 0.5 2 0 0 5.1 5.2 12.7 2 1.9-0.8 2.2-2 1.8-3.4q-0.1-0.3-0.2-0.5l1.7 1.5 1.6 1.5c10.9 10.7 28.6 44.9 28.6 44.9z"/><path class="p" d="m315 98.8c-1.5-2-20.1-26-32.9-29.7-13.3-3.8-30.6 7.2-36.6 6.2-5.9-0.9-2.8-4.6-2.7-4.7-0.5 0-46.5 6.3-46.6-5.3-0.1-7.5 7.7-9.5 15.3-9.5 7.2-0.1 14.3 1.5 14.3 1.5 0 0-5.6-5.3-0.3-7.2 5.3-1.9 10.7 1.9 10.7 1.9 0 0-0.8-1.4-1.3-3.2-0.8-2.7-0.7-6.3 4.6-6.3 3.8 0 7.1 1.5 9.6 3.1q0.8 0.5 1.4 1.1c1.1 0.8 2 1.6 2.6 2.2 0.7 0.7 1 1.2 1 1.2q0 0 0-0.5c-0.1-2.6 0.2-14 10.6-10.9q1.5 0.5 3.4 1.4c15.3 7.6 6.7 18.1 6.7 18.1 0 0 6 0.5 12 5.2 1.7 1.4 4.7 4.8 8.2 9.1 8.2 10.1 18.9 24.8 20 26.3z"/><path class="q" d="m295 72.5c0 0-10.1-8-15.9-9.7-5.8-1.8-16.7-2-16.7-2 0 0 1.8-6.3-8.3-6.1-9.9 0.3-6.7 6.6-6.7 6.8-0.1-0.1-3.6-3.3-5.4-2.4-1.9 0.9 0 2.4 0 2.4 0 0-8.2 2.8-22.6 2.6-14.3-0.2-16.7-7.7-7.9-8.3 7.2-0.1 14.3 1.5 14.3 1.5 0 0-5.6-5.3-0.3-7.2 5.3-1.9 10.7 1.9 10.7 1.9 0 0-0.8-1.4-1.3-3.2 3.3 1.7 8.1 3.4 11.6 1.1 2-1.2 2.6-2.8 2.6-4.3q0-0.4-0.1-0.9 0.7 1 1.5 2c0.8 0.8 1.6 1.6 2.6 2.2q0.5 0.4 1 0.7c1.3 0.7 2.7 1.2 4.3 1.4 8.5 1.1 9.8-6.9 9.8-8.9 0-1-1.8-2.4-3.5-3.4q1.5 0.5 3.4 1.4c15.3 7.6 6.7 18.1 6.7 18.1 0 0 6 0.5 12 5.2 1.7 1.4 4.7 4.8 8.2 9.1z"/><path class="r" d="m428.3 107.2q-0.8 1.3-1.9 2.6c-2.4 2.9-12.7 4.5-21.7 5.4-7.5 0.8-14.1 1-14.1 1 0 0-2.2-1.1-6.6 0.3q-0.1 0.1-0.2 0.1c-3.4 1.1-8.1 0.6-10.2 0.2-0.7-0.1-1.2-0.2-1.2-0.2h-10.6-50.6c0 0 31.9-1.8 59.6-4.5q0.9 0 1.8-0.1c4.9-0.5 9.7-1 14-1.5q0.4 0 0.7-0.1 4.2-0.5 7.9-1 2.1-0.3 4-0.6c8-1.3 12.8-2.6 11.8-3.9-4.6-5.7-50-9.7-50-9.7l-2.2-4.3 10.2 4.6 24.2 1.1c0 0 3-3.4 5.7-3.4 2.6 0 7.1 3.4 7.1 3.4 0 0 6.8-7.6 15.9-6.1 1.8 0.3 3.2 1 4.4 1.8 4.3 3.1 5.1 9.4 2 14.9z"/><path class="s" d="m272.5 111.8c0.2 1.9 34.5 0.1 34.5 0.1 0 0-25.2 0.5-25.6-1.3-0.4-1.2 3.4-1.6 3.4-1.6l-2.8-1.5c0 0-9.7 2.4-9.5 4.3z"/><path class="t" d="m379.9 122.6l-0.3 0.1-28.3 1.5c0 0-14.4 1.5-14 2.2 0.4 0.8 7.2 1.5 7.2 1.5l-19.7 1.2c0 0 4.5 1 0.5 3-4.5 2.2-56.2 0.1-57.8 0 1.3 0 38.4 1 38.1-3.8-0.2-1.7-2.2-2.2-4.8-2.2q-0.2 0-0.3 0 0 0-0.1 0-0.1 0-0.3 0-0.4 0.1-0.9 0.1-0.2 0-0.3 0-0.6 0.1-1.1 0.1-0.1 0.1-0.2 0.1-0.2 0-0.4 0-0.3 0.1-0.5 0.1-0.2 0-0.3 0-0.1 0.1-0.3 0.1-0.6 0.1-1.3 0.2-0.2 0.1-0.4 0.1-0.7 0.1-1.3 0.3-0.2 0-0.4 0.1-0.8 0.1-1.4 0.3c-1.6 0.4-2.7 0.7-2.7 0.7 0 0-0.7 0-1.9 0-7-0.1-31.1-0.4-37.6-2.6-1.1-0.3-1.7-0.7-1.7-1.2 0-3.8 37.4-7.4 37.4-7.4l-1.9 4c0 0-29.5-3-24.9 1.9 0.7 0.8 11 1.1 25.4 1.1 3.8 0 7.8 0 12 0q0 0 0 0 3-0.1 6.1-0.1c5.4 0 10.9-0.1 16.4-0.2q3.5 0 6.9-0.1c5.1 0 10.1-0.1 15-0.2 20.3-0.4 37.2-0.8 39.8-0.8q0.3-0.1 0.3-0.1z"/><path class="u" d="m277.2 109.8c0 0 0.8-5.3 3.1-5.3 2.2 0 4.5 4.5 4.5 4.5z"/><path class="v" d="m413 118.9h16.2l-3.7 0.8 21.9 2.2c0 0-30.3 2.3-30.3 1.2 0-1.2 6.5-3.4 6.5-3.4z"/><path class="w" d="m303.6 112c0.1-0.3 2.3-2.6 3.5-2.6 1.1 0 2.6 1.9 2.6 1.9l11 0.4z"/><path class="x" d="m379.6 122.7l-28.3 1.5c0 0-14.4 1.5-14 2.2 0.4 0.8 7.2 1.5 7.2 1.5l-19.7 1.2c0 0 4.5 1 0.5 3-4.5 2.2-56.2 0.1-57.8 0 1.3 0 38.4 1 38.1-3.8-0.2-1.7-2.2-2.2-4.8-2.2q-0.2 0-0.3 0 0 0-0.1 0-0.1 0-0.3 0-0.4 0.1-0.9 0.1-0.2 0-0.3 0-0.6 0.1-1.1 0.1-0.1 0.1-0.2 0.1-0.2 0-0.4 0-0.3 0.1-0.5 0.1-0.2 0-0.3 0-0.1 0.1-0.3 0.1-0.6 0.1-1.3 0.2-0.2 0.1-0.4 0.1-0.7 0.1-1.3 0.3-0.2 0-0.4 0.1-0.8 0.1-1.4 0.3c-1.6 0.4-2.7 0.7-2.7 0.7 0 0-0.7 0-1.9 0-7-0.1-31.1-0.4-37.6-2.6 5.9 1.2 31.1 1.5 31.1 1.5 0 0 9.8 0.3 9.2-1.5-0.9-0.7-3.4-1.2-6-1.6 3.8 0 7.8 0 12 0q0 0 0 0c0.2 0 3.8 0.5 6.1-0.1 1.4-0.3 2.3-0.9 2.1-2.1-0.7-3.4-3.9-1.7-4.1-1.5 1.3-1.1 2.6-1.9 3.4-1.9 2.3 0 5.7 3.8 5.7 3.8 0 0 1.5-1.5 3-1.5 1.5 0 5.3 2.6 5.3 2.6 0 0 0.2-0.5 0.6-1.3 0 0.6 0.1 1.2 0.4 1.7 0.4 0.6 1 1.1 1.9 1.3 1.3 0.4 3.2-0.2 5-1.4 4.2-2.6 8.1-7.8 4.8-9.3-2.6-1.1-5.4 0.2-7.4 1.6 1.5-1.2 3.4-2.2 5.7-2.4 7.1-0.7 11.4 8.8 11.9 9.9 20.3-0.4 37.2-0.8 39.8-0.8z"/><path class="y" d="m422 92.3c0.8 1.7-2 4.6-6.2 6.5-4.2 1.8-8.2 1.9-9 0.1-0.7-1.7 2-4.6 6.2-6.5 4.2-1.8 8.2-1.9 9-0.1z"/><path class="z" d="m393.5 96.8c0 0 2.6-3.4 5-3.3 2.5 0.2 4.7 2.1 4.7 2.1 0 0 0.5 2.2-3.6 2.2-4.2 0-6.1-1-6.1-1z"/><path class="A" d="m452.1 112.8l-47.4 2.4c-7.5 0.8-14.1 1-14.1 1 0 0-2.2-1.1-6.6 0.3l-10.4 0.3-20 0.6c0 0 3.8-0.3 8.2-0.8 6.8-0.7 15.4-1.9 14.5-3-0.6-0.7-2.8-1.1-5.5-1.5q0.9 0 1.8-0.1c0 0 2.1-4.8 4.7-4.8 2.1 0 7.3 2.3 9.3 3.3q0.4 0 0.7-0.1c-0.4-0.9-0.9-2.7 1.4-3.2 2.1-0.6 5 1.2 6.5 2.2q2.1-0.3 4-0.6l13.2-1.8c0 0-2.8-4.7 4.3-6 7.1-1.4 6.4 2.9 6.4 2.9 0 0 5.5-0.5 5.5-6.1 0-2.1-1-4-2.3-5.5 4.3 3.1 5.1 9.4 2 14.9l-2.2 5.3z"/><path class="e" d="m100.6 237.3l10-14.6 3.7-6.4c0 0 22.8 10.9 25.6 11.8 2.7 1 15.5-1.8 15.5-1.8l27.4-1.8-18.3 16.4z"/></svg>