<svg version="1.2" xmlns="http://www.w3.org/2000/svg" viewBox="0 0 934 328" width="934" height="328"><defs><linearGradient id="P" gradientUnits="userSpaceOnUse"/><linearGradient id="g1" x1="517.5" y1="-51" x2="580.9" y2="437.7" href="#P"><stop stop-color="#f29c9b"/><stop offset="1" stop-color="#5137a6"/></linearGradient><linearGradient id="g2" x1="217.7" y1="108" x2="328.8" y2="326.4" href="#P"><stop stop-color="#ffd1b7"/><stop offset=".36" stop-color="#ff809c"/><stop offset="1" stop-color="#736bd1"/></linearGradient><linearGradient id="g3" x1="394.2" y1="130.8" x2="394.6" y2="131.1" href="#P"><stop stop-color="#00ffc2"/><stop offset="1"/></linearGradient><linearGradient id="g4" x1="820.5" y1="139.6" x2="985.7" y2="541.6" href="#P"><stop stop-color="#ffd1b7"/><stop offset=".36" stop-color="#ff809c"/><stop offset="1" stop-color="#736bd1"/></linearGradient></defs><style>.a{fill:url(#g1)}.b{opacity:.2;mix-blend-mode:multiply;fill:#d45ba7}.c{opacity:.8;fill:url(#g2)}.d{opacity:.5;mix-blend-mode:color-dodge;fill:url(#g3)}.e{opacity:.5;mix-blend-mode:color-dodge;fill:#ffaade}.f{opacity:.8;fill:url(#g4)}</style><path class="a" d="m933.6 148.5l-30.4 50-10 129-118-19-243-13-526 22-5.7-172.9 130.1-5 1.2-1.1 5-4.3 28.5-5.4 14.2-9.7 56-8.6 5.3-3.2 8-9.7 13.6-10.3 0.6-0.5 37.4 16.2 11.5 2.1 26.7 19.4 23.8 2.7 32 3.7h0.1l0.1 0.1 0.8-0.5 20.5-10.3v-3.2l10-1.6 4.2-0.6 5.3-4.3 12.7-5.1 0.7-0.3 15.1 11.9v5.3l17.7 6.5 39.2 2.2 7.4-0.8 13-1.4c0 0 0.4-0.3 1-0.8 1.6-1.2 4.6-3.5 5.2-3.5 0.5 0 3 0.8 5.3 1.7 2.3 0.7 4.5 1.5 4.5 1.5l12.4 1.1 44-1.5 20.9-0.7 4.8-2 18.3-7.6 25.8-47.4 4.4-9.7 33.8-6.4 29.3-14 6.2-10.8 20.2-27.6 0.3-0.3 11.5 8.6 14.2 17.2h9.8l7.1 6.4 16 8.6 10.7 15.1z"/><path class="b" d="m930.3 143.5l-109.7 7.6-11-67.5-20.5-11.8-2.6 2.1-3.6-5.4 6.2-17.2-1.8-22.6-4.4-18.3-5.3-9.6 11.5 8.6 14.2 17.2h9.8l7.1 6.4 16 8.6 10.7 15.1z"/><path class="b" d="m635.2 144.1l-84.5 31.3-145.7-30.3-7.3-11 15.6-7.3 2.6-0.2 12.9-8 6.6 4.8 14.3-2.1-0.9-1.1h5.3v-2.2l-6-12.6 0.7-0.3 15.1 11.9v5.3l17.7 6.5 46.6 1.4 13.9-0.5c0 0 0.4-0.3 1-0.8 1.6-1.2 4.6-3.5 5.2-3.5 0.5 0 2.1-0.1 4.4 0.8 2.3 0.7 4.5 1.5 4.5 1.5l12.4 1.1 44-1.5 23.4 3.1z"/><path class="b" d="m248.9 150.5l30.1-13.7-13.3-12.4-9.9-1 14.1-2.1v-9l9.1 11.1 1.4 2 13.2-10.5-12.8-16.2-10.7-4.3-7.1-7.6 38.8 19.9 10.1-1.6 25.6 20.8 23.7 2.7 27.4 2.8 21.9 19.1z"/><path class="b" d="m818.7 147.8l-27.5 29.3-9.6-24.4-28.9 1.5v-5.3l-11.6 3.3-123.7 2 34.9-17.1 5.7-4.8 4.6-10.1 1-3.9 1.6 3-1.3 10.7h28.2l10-14.1 0.8-22.1 9.9-12.8-7.3 14.6-0.1 12.3 3.3 7-5.8 19.2 7.5 5 8.3-19.1 5.8-12.1v-14.1l4.1 13.1-1.6 8 10.5 8.5-3.2-17.3 2.5-14.1 12.5-16.5-2.7 10 1.8 6.4 8.5 8.9 4.1 8.1 9.1 7c0 0 4.5 7.3 9 15.3l7.4-22.5 1.1-5.2-17.5-11.1-6.7-21.1 1.7-4.5 7.1-26-1 20.1 4.6 7.4 1.9 12.9 16.4 17.9 14.6 10.2z"/><path class="b" d="m186 120.9l35.7 2 25.7 9.1 20 2-20-9.1-2.5-9.1-3.3-4-9.1 4h-5.8v3.1h-2.5l-3.3-1-2.5 1h-5.8z"/><path class="b" d="m165.2 129l11.6 1 28.2 8.1 16.6 5 39.9 3-6.7-3-6.6-2-3.3-4-18.3 3-12.4-2c0 0-5.8-4-6.7-4-0.8 0-9.9-1-9.9-1l-21.6-5.1z"/><path class="b" d="m65.6 154.6c0.9-0.4 38.2-6.4 38.2-6.4l7.5 1 19.1 2 13.2-4-9.9-5.1 19.9 6.1c0 0 8.3-1 9.9-1 1.7 0 19.1 4 24.9 5 5.8 1 26.4 1 26.4 1z"/><path class="c" d="m262.4 87.3l-4.3 4.7-8.3 5.6-8.2 11.1-4.9 3.3-56.6 8.3-14.9 9.1-27.4 5.8-6 3.3 5-4.3 28.5-5.4 14.2-9.7 56-8.6 5.3-3.2 8-9.7z"/><path class="d" d="m394.4 130.9h0.1l-0.3 0.1z"/><path class="e" d="m425.9 115.4l-9.3 2.4v3.3l-21.2 9.4 20.5-10.3v-3.2z"/><path class="f" d="m777.3 1.1l-6.3 12.1-10 14.1-3.3 5.8-6.7 7.5-22.4 13.3-5.8 0.8-27.4 5.8-7.4 1.7-27.4 55.6-21.3 6.8 18.3-7.6 25.8-47.4 4.4-9.7 33.8-6.4 29.3-14 6.2-10.8z"/></svg>